<svg width="174" height="49" viewBox="0 0 174 49" fill="none" xmlns="http://www.w3.org/2000/svg">
<g clip-path="url(#clip0)">
<path d="M108.135 9.13933C89.208 6.34658 67.0006 9.26627 49.2094 16.2481C39.1152 20.1834 29.778 26.0227 20.9455 32.3699C16.4031 35.6704 12.113 39.2248 7.94911 42.9062C6.68732 44.0486 2.64961 49.5072 1.0093 48.9994C-4.41638 47.2222 13.8795 30.8466 16.0245 29.1963C24.857 22.3414 34.1942 15.7404 44.5408 11.2974C61.8273 3.80772 82.5205 -1.14306 101.447 0.253317C112.425 1.01498 123.529 1.64969 134.254 4.82327C138.796 6.21964 143.212 7.8699 147.376 10.1549C150.278 11.6782 153.307 13.3284 156.083 15.2326C158.101 16.629 159.994 19.5487 162.139 20.4373C162.391 16.2481 158.858 11.6782 158.732 7.36213C158.606 2.15746 162.391 4.44244 164.032 7.36213C166.808 12.059 168.827 17.2637 170.972 22.3414C172.864 26.6575 176.271 31.6082 171.602 35.0357C167.565 37.9554 162.265 39.3518 157.723 41.3828C154.695 42.7792 148.764 47.2222 145.357 45.1911C134.758 38.9709 161.13 33.1316 162.644 31.8621C161.256 30.4657 159.111 29.7041 157.471 28.5616C155.073 26.9113 153.054 24.8803 150.657 23.23C146.241 20.0564 141.32 17.3906 136.399 15.2326C127.819 11.4243 117.598 9.13933 108.135 9.13933C101.321 8.12378 109.523 9.13933 108.135 9.13933Z" fill="#252B31"/>
</g>
<defs>
<clipPath id="clip0">
<rect width="174" height="49" fill="white"/>
</clipPath>
</defs>
</svg>
