<svg width="50" height="50" viewBox="0 0 50 50" fill="none" xmlns="http://www.w3.org/2000/svg">
<circle cx="25" cy="25" r="25" fill="#8ABBF8"/>
<path d="M25.6272 35.2683C25.2392 35.7769 24.7393 36.1956 24.1637 36.4942C23.5881 36.7927 22.9511 36.9638 22.2989 36.9948C21.6467 37.0259 20.9955 36.9163 20.3923 36.6739C19.7892 36.4314 19.2493 36.0623 18.8116 35.5931L10.8757 27.0653C10.2708 26.415 9.95747 25.5588 10.0046 24.6848C10.0518 23.8109 10.4556 22.9909 11.1273 22.4052C11.7989 21.8196 12.6833 21.5162 13.586 21.5619C14.4886 21.6075 15.3355 21.9985 15.9405 22.6488L21.5553 28.676C21.5955 28.7218 21.6461 28.7579 21.7031 28.7815C21.7601 28.8052 21.822 28.8158 21.884 28.8124C21.9446 28.8092 22.0038 28.793 22.0572 28.7649C22.1106 28.7368 22.1568 28.6976 22.1926 28.6501L33.7375 13.4975C33.9905 13.1217 34.3201 12.7998 34.7059 12.5515C35.0918 12.3032 35.5259 12.1337 35.9818 12.0534C36.4376 11.973 36.9056 11.9835 37.3571 12.0842C37.8086 12.1849 38.2341 12.3736 38.6077 12.639C38.9813 12.9043 39.2951 13.2406 39.5299 13.6273C39.7648 14.014 39.9157 14.443 39.9734 14.8881C40.0312 15.3332 39.9946 15.785 39.8659 16.2159C39.7372 16.6469 39.5191 17.0479 39.2249 17.3944L25.6272 35.2683Z" fill="white"/>
</svg>
