<svg width="50" height="50" viewBox="0 0 50 50" fill="none" xmlns="http://www.w3.org/2000/svg">
<circle cx="25" cy="25" r="25" fill="#FF6633"/>
<g clip-path="url(#clip0)">
<path d="M19.7808 25.0001L11.0818 33.6988C10.3894 34.3908 10.0003 35.3294 10 36.3083C9.99972 37.2872 10.3883 38.2261 11.0803 38.9185C11.7723 39.6109 12.711 40 13.69 40.0003C14.6689 40.0006 15.6078 39.612 16.3002 38.92L25.0002 30.2193L33.6982 38.92C34.041 39.2627 34.448 39.5345 34.8959 39.7199C35.3438 39.9053 35.8238 40.0007 36.3086 40.0006C36.7933 40.0005 37.2733 39.905 37.7211 39.7194C38.169 39.5338 38.5759 39.2618 38.9186 38.919C39.2613 38.5762 39.5331 38.1692 39.7185 37.7213C39.9039 37.2734 39.9993 36.7934 39.9992 36.3087C39.9992 35.8239 39.9036 35.344 39.718 34.8962C39.5324 34.4484 39.2604 34.0415 38.9176 33.6988L30.2196 25.0001L38.9186 16.3024C39.6108 15.6102 39.9997 14.6713 39.9997 13.6923C39.9997 12.7133 39.6108 11.7744 38.9186 11.0822C38.2263 10.39 37.2874 10.0011 36.3084 10.0011C35.3294 10.0011 34.3904 10.39 33.6982 11.0822L25.0002 19.7819L16.3002 11.0822C15.6083 10.3901 14.6699 10.0012 13.6912 10.001C12.7126 10.0008 11.774 10.3894 11.0818 11.0812C10.3897 11.7731 10.0007 12.7115 10.0006 13.6901C10.0004 14.6687 10.389 15.6073 11.0808 16.2994L19.7808 25.0001Z" fill="white"/>
</g>
<defs>
<clipPath id="clip0">
<rect width="30" height="30" fill="white" transform="translate(10 10)"/>
</clipPath>
</defs>
</svg>
