<svg width="25" height="25" viewBox="0 0 25 25" fill="none" xmlns="http://www.w3.org/2000/svg">
<circle cx="12.5" cy="12.5" r="12.5" fill="#FF6633"/>
<g clip-path="url(#clip0)">
<path d="M9.8904 12.5005L5.54091 16.8499C5.19471 17.1959 5.00014 17.6652 5 18.1547C4.99986 18.6441 5.19416 19.1135 5.54016 19.4597C5.88616 19.8059 6.35552 20.0005 6.84498 20.0006C7.33444 20.0008 7.80391 19.8065 8.15011 19.4605L12.5001 15.1101L16.8491 19.4605C17.0205 19.6318 17.224 19.7677 17.4479 19.8604C17.6719 19.9532 17.9119 20.0008 18.1543 20.0008C18.3967 20.0008 18.6367 19.953 18.8606 19.8602C19.0845 19.7674 19.2879 19.6314 19.4593 19.46C19.6306 19.2886 19.7666 19.0851 19.8593 18.8611C19.952 18.6372 19.9997 18.3972 19.9996 18.1548C19.9996 17.9125 19.9518 17.6725 19.859 17.4486C19.7662 17.2247 19.6302 17.0212 19.4588 16.8499L15.1098 12.5005L19.4593 8.15169C19.8054 7.80557 19.9999 7.33613 19.9999 6.84664C19.9999 6.35715 19.8054 5.88771 19.4593 5.54159C19.1131 5.19547 18.6437 5.00102 18.1542 5.00102C17.6647 5.00102 17.1952 5.19547 16.8491 5.54159L12.5001 9.89143L8.15011 5.54159C7.80417 5.19553 7.33493 5.00107 6.84561 5.00098C6.35629 5.00088 5.88698 5.19517 5.54091 5.54109C5.19484 5.88701 5.00037 6.35624 5.00028 6.84554C5.00019 7.33484 5.19448 7.80414 5.54041 8.1502L9.8904 12.5005Z" fill="white"/>
</g>
<defs>
<clipPath id="clip0">
<rect width="15" height="15" fill="white" transform="translate(5 5)"/>
</clipPath>
</defs>
</svg>
