<svg width="198" height="255" viewBox="0 0 198 255" fill="none" xmlns="http://www.w3.org/2000/svg">
<path d="M95.3333 38.084C91.3191 43.293 90.5805 50.142 87.8026 55.9942C87.2406 57.2161 86.502 58.3415 85.8919 59.5312C85.8116 60.0296 85.362 60.4798 84.8321 60.3512C83.3549 59.9171 71.6495 57.9878 73.2712 55.8173C73.2712 55.8013 73.2873 55.8013 73.2873 55.7852C73.496 55.4958 73.8653 55.3511 74.2025 55.5279C74.3149 55.5922 74.4273 55.6405 74.5558 55.6887C75.2462 56.0103 75.9367 56.2836 76.6592 56.5408C76.9643 56.6534 77.2854 56.7498 77.6066 56.8624C79.148 57.3608 80.7376 57.7305 82.3112 58.1325C82.4557 58.1646 82.6163 58.2129 82.7608 58.245C82.809 58.2611 82.8571 58.2772 82.9214 58.2933C83.6118 58.4701 84.3183 58.5344 84.9927 58.7595C85.3781 58.1325 85.7313 57.4894 86.0524 56.8302C86.2291 56.4765 86.3896 56.1389 86.5502 55.7852C88.8945 50.5118 89.7455 44.5471 92.6357 39.5792C92.8284 39.2415 93.0371 38.9039 93.2619 38.5824C93.5991 38.0679 93.9684 37.5695 94.3699 37.0872C93.6794 36.6048 93.0211 36.1064 92.3628 35.608C92.154 35.4633 91.9613 35.3026 91.7526 35.1418C90.9176 34.4987 90.0827 33.8556 89.2317 33.2125C89.039 33.0678 88.8624 32.9392 88.6697 32.7945C88.5894 32.698 88.4931 32.6176 88.3807 32.5212C87.8829 32.1192 87.1604 31.7816 86.8071 31.2832C86.6305 31.042 86.5341 30.7848 86.5823 30.4633C86.6144 30.399 86.6465 30.3346 86.6787 30.2864C87.1122 29.5951 88.0114 30.3507 88.5252 30.7044C90.0666 31.8298 91.6241 32.9392 93.1174 34.1611C94.2414 35.1579 97.0995 36.2994 95.3333 38.084Z" fill="#252B31"/>
<path d="M87.1766 30.9131C87.0321 31.0256 86.9036 31.1542 86.7591 31.2828C86.1811 31.8134 85.6191 32.3761 85.1053 32.971C84.8965 33.2121 84.7038 33.4533 84.4951 33.6945C82.2632 36.4758 80.6896 39.7717 79.5817 43.148C78.827 46.3474 77.96 49.5468 76.4667 52.4568C76.3222 52.7462 76.1616 53.0356 76.001 53.325C75.6317 53.9841 75.2303 54.6112 74.7807 55.2221C74.7005 55.3507 74.6202 55.5115 74.5238 55.6723C74.299 56.0903 74.01 56.4761 73.5122 56.2511C73.3517 56.1064 73.2714 55.9456 73.2553 55.7687C73.1269 54.7719 74.6523 53.1803 74.9895 52.3925C76.2901 50.0452 77.0126 47.4728 77.6549 44.8843C78.7468 40.3666 80.6575 35.7684 83.9331 32.4243C84.2221 32.0706 85.7475 30.5915 86.5985 30.286C87.0481 30.1413 87.289 30.27 87.1766 30.9131Z" fill="#252B31"/>
<path d="M76.7397 57.9394C75.7924 57.4088 77.8958 55.2223 76.3383 53.3734C75.6158 53.6145 75.6158 51.637 76.7879 52.682C77.8316 53.6949 78.0885 55.3027 77.671 56.6692C77.4944 57.1355 77.4302 58.0841 76.7397 57.9394Z" fill="#252B31"/>
<path d="M82.4402 59.0158C81.3002 58.1798 84.2546 56.1541 85.0735 55.945C85.5552 55.8647 86.1493 55.5753 86.6149 55.8004C86.9682 56.0897 86.7755 56.7328 86.3259 56.8132C84.8808 56.8132 83.4839 57.4885 82.6008 58.63C82.7292 58.7586 82.6329 59.0158 82.4402 59.0158Z" fill="#252B31"/>
<path d="M86.7433 34.1283C86.5827 34.1283 86.4061 34.1122 86.2455 34.0961C86.2616 34.0961 86.2937 34.0961 86.3098 34.0961C86.2776 34.0961 86.2295 34.0961 86.1974 34.08H86.2134C86.1973 34.08 86.1652 34.08 86.1492 34.08H86.1652C86.1652 34.08 86.1652 34.08 86.1492 34.08H86.1652C85.6193 34.08 83.275 33.5816 84.126 32.7939C85.0091 32.9546 85.9083 33.1476 86.8236 33.0511C87.498 32.9868 88.1884 32.7135 88.6862 32.2472C88.8949 32.1025 89.1839 32.1508 89.3284 32.3598C89.6977 33.0993 88.7183 33.6299 88.1563 33.8389H88.1723C88.1563 33.8389 88.1402 33.855 88.1242 33.855H88.1402C87.6906 34.0318 87.2089 34.1444 86.7433 34.1283Z" fill="#252B31"/>
<path d="M92.4111 39.4661C90.6609 38.9034 91.3995 33.5336 92.4272 35.1734C92.4914 35.3181 92.4753 35.5111 92.3148 35.5754C92.2184 36.6686 92.2827 37.8101 93.214 38.5497C93.5672 39.0481 92.9571 39.8681 92.4111 39.4661Z" fill="#252B31"/>
<path d="M84.0456 48.1638C81.0591 47.2795 82.5363 42.6332 85.4586 43.2763C86.3417 42.7136 87.0804 44.2248 87.257 44.9322V44.9162C87.257 44.9322 87.273 44.9644 87.273 44.9805C87.273 44.9644 87.257 44.9483 87.257 44.9322C87.8029 46.7329 85.86 48.6944 84.0456 48.1638ZM84.8164 47.0223C86.1972 46.9741 86.9037 45.2699 85.7316 44.4017C85.4907 44.2731 85.2178 44.1284 85.2338 43.8229C83.0983 43.7425 82.3757 46.958 84.8164 47.0223Z" fill="#252B31"/>
<path d="M125.086 12.1985C125.006 12.2789 124.926 12.3593 124.846 12.4236C124.268 12.9863 123.641 13.4847 122.999 13.9349C122.79 14.0796 122.598 14.2082 122.373 14.3368C116.801 17.8578 109.303 18.2115 104.694 23.3241L104.678 23.3402C104.469 23.5492 104.261 23.7582 104.052 23.9833C103.891 24.1601 103.731 24.337 103.586 24.5138C103.121 25.0765 102.719 25.6875 102.446 26.3788C102.414 26.4753 102.366 26.5717 102.35 26.6682C102.27 26.9737 101.868 27.1505 101.627 26.8933C101.579 26.7164 101.563 26.5396 101.563 26.3627C101.515 24.4174 103.875 22.5524 105.096 21.234C110.411 16.1375 118.905 16.443 124.139 11.3143C124.781 10.2692 125.424 10.5426 125.488 11.1374C125.52 11.459 125.408 11.8448 125.086 12.1985Z" fill="#252B31"/>
<path d="M130.98 21.5881C130.947 21.6524 130.915 21.7167 130.851 21.781C130.434 22.199 129.968 22.5527 129.502 22.9225C126.195 25.3019 122.068 26.138 118.519 28.0994C116.015 29.5624 113.526 31.2988 111.744 33.63C111.679 33.8551 111.406 34.0159 111.214 33.8873C111.182 33.8712 111.165 33.839 111.133 33.8069C111.117 33.4049 111.23 33.003 111.438 32.6332C111.744 32.0544 112.257 31.5239 112.787 31.0094C112.98 30.8326 113.157 30.6557 113.349 30.4949C113.767 30.1091 114.168 29.7393 114.457 29.4017C118.102 25.9129 123.128 24.8839 127.431 22.5527C127.752 22.3758 128.057 22.199 128.362 22.0221C128.699 21.8131 129.037 21.6041 129.358 21.379C129.326 21.3951 129.31 21.4112 129.278 21.4434C129.55 21.2504 129.823 20.961 130.129 20.8003C130.257 20.736 130.401 20.6877 130.562 20.7038C131.012 20.736 131.14 21.2344 130.98 21.5881Z" fill="#252B31"/>
<path d="M131.654 20.7355C131.461 20.9445 131.237 21.3304 130.996 21.5876C130.755 21.8288 130.482 21.9413 130.145 21.6519C129.888 21.3464 129.968 21.041 130.161 20.7516C130.321 20.5104 130.53 20.2853 130.691 20.0924C130.691 20.0924 130.691 20.0924 130.707 20.0763C130.707 20.0763 130.723 20.0602 130.723 20.0442C130.787 19.9638 130.835 19.8834 130.899 19.803C130.402 19.2564 129.936 18.6776 129.502 18.0827C129.374 17.9219 129.262 17.7612 129.149 17.6004C128.443 16.6197 127.784 15.6229 127.078 14.6261C126.917 14.401 126.757 14.1759 126.596 13.9669C126.596 13.9508 126.58 13.9508 126.58 13.9348C126.58 13.9348 126.58 13.9187 126.564 13.9187C126.098 13.3238 125.585 12.7772 125.119 12.1823C125.055 12.1019 124.99 12.0215 124.926 11.9251C124.75 11.9572 124.637 11.7965 124.637 11.6357C124.284 11.3624 124.428 10.7514 124.894 10.7354C125.103 10.8479 125.312 10.9926 125.52 11.1373C126.821 12.0859 127.849 13.5167 128.844 14.7547C128.828 14.7225 128.812 14.7065 128.78 14.6904C129.647 15.7193 130.466 16.7644 131.237 17.8737C131.943 18.6937 132.585 19.8191 131.654 20.7355Z" fill="#252B31"/>
<path d="M111.23 33.871C111.149 33.8871 111.085 33.8871 111.005 33.8871C110.459 33.7263 110.025 33.2922 109.527 33.0189L109.511 33.0028C106.83 31.2182 104.502 28.9352 101.836 27.1346C101.66 27.231 101.515 27.0542 101.515 26.8773C101.467 26.6522 101.483 26.4915 101.563 26.395C101.692 26.2181 102.013 26.2503 102.462 26.4271C102.864 26.5879 103.378 26.8612 103.94 27.1989C104.213 27.3757 104.502 27.5526 104.807 27.7455C106.123 28.6298 107.585 29.723 108.644 30.5108C108.885 30.6877 109.094 30.8484 109.287 30.9931C109.688 31.2986 109.993 31.4915 110.106 31.5558L110.122 31.5719C110.587 31.9095 111.037 32.2632 111.454 32.6491C111.519 32.7134 111.583 32.7616 111.631 32.826C111.888 33.1636 111.647 33.7584 111.23 33.871Z" fill="#252B31"/>
<path d="M104.165 28.3564C103.346 28.2117 104.534 26.0573 103.812 24.9319C103.812 24.948 103.828 24.964 103.828 24.9801C103.747 24.8193 103.667 24.6425 103.555 24.4978C103.458 24.4978 103.394 24.4335 103.346 24.3692C103.009 23.5171 104.068 23.7743 104.309 24.3531C104.887 25.0766 105.385 28.1795 104.165 28.3564Z" fill="#252B31"/>
<path d="M108.484 31.1855C107.729 30.4298 110.138 29.8832 110.652 29.7868C111.342 29.6581 114.04 29.6903 113.189 30.8961C112.627 31.2016 111.952 30.5906 111.342 30.6389C110.347 30.5263 109.399 30.9604 108.484 31.1855Z" fill="#252B31"/>
<path d="M124.123 15.1734C123.417 14.9644 122.036 14.675 122.213 13.7104C122.277 13.5979 122.421 13.5175 122.534 13.6139C123.272 14.4017 124.653 14.4017 125.649 14.2249C125.633 14.2249 125.617 14.2409 125.585 14.2409C125.922 14.1445 126.291 14.0963 126.596 13.9033C126.773 13.7265 126.885 13.4532 127.158 13.4049C127.56 13.3406 127.72 13.8551 127.511 14.1284C126.821 15.2217 125.28 15.3824 124.123 15.1734Z" fill="#252B31"/>
<path d="M127.479 22.6496C126.933 20.9775 127.736 18.7749 129.069 17.6495C129.518 17.2154 129.887 18.0836 129.341 18.1318C128.41 19.1447 128.137 20.7042 128.394 22.0386C128.587 22.5692 127.864 23.1801 127.479 22.6496Z" fill="#252B31"/>
<path d="M116.272 25.3019C113.285 25.0447 113.959 20.4626 116.769 20.6234C120.141 19.7391 119.371 25.8807 116.272 25.3019ZM116.673 24.1443C117.765 24.2247 118.6 22.5527 117.749 21.8292C117.283 21.6523 116.496 21.797 116.561 21.0736C114.698 21.3308 114.586 24.3051 116.673 24.1443Z" fill="#252B31"/>
<path d="M53.5859 33.807C53.5538 33.807 53.5217 33.807 53.4895 33.807C52.2532 33.1317 51.8999 29.45 51.4343 28.0352C50.1979 22.3438 52.221 16.7328 52.7991 11.1218C52.8473 9.8999 52.6867 8.6941 52.3977 7.50437C52.3977 7.00597 51.3219 5.09276 52.0926 5.12491C52.1568 5.12491 52.221 5.14099 52.3013 5.17314C52.4619 5.43038 52.5904 5.68762 52.7188 5.94486C53.0239 6.5558 53.2487 7.15066 53.4253 7.76161C53.5056 8.051 53.5859 8.35647 53.6501 8.64586C54.8704 14.691 51.065 21.0576 53.1524 29.4179C53.2326 29.7394 53.3129 30.0449 53.4093 30.3664C53.618 31.0738 53.8749 31.7812 54.18 32.5208C54.2282 32.6333 54.2763 32.7459 54.3245 32.8424C54.4048 33.2925 54.0515 33.807 53.5859 33.807Z" fill="#252B31"/>
<path d="M65.3875 28.7427C65.2911 28.7588 65.1787 28.7588 65.0342 28.7588C64.697 28.6462 64.6167 28.2925 64.5365 27.971C64.5204 27.9067 64.5043 27.8424 64.4883 27.778C64.3438 27.151 64.2314 26.524 64.1511 25.897C64.119 25.6076 64.0869 25.3182 64.0708 25.0127C63.6533 18.6943 66.5917 12.4884 66.4151 6.17002C66.399 5.543 66.2706 4.94814 66.094 4.36935C65.9976 4.07996 65.9013 3.79056 65.7889 3.50117C65.5641 2.85807 65.3072 2.23106 65.1145 1.57188C65.0021 1.2021 64.9218 0.832321 64.8737 0.462541C64.9218 0.366077 64.9539 0.301767 65.0021 0.253535C65.1466 0.0927606 65.3072 0.189225 65.4517 0.382154C65.548 0.494696 65.6283 0.65547 65.6926 0.800166C65.7407 0.912708 65.7889 1.00917 65.821 1.07348C70.5578 8.79064 64.5365 17.4081 65.5802 25.6398C65.5159 26.5401 66.6078 28.5176 65.3875 28.7427Z" fill="#252B31"/>
<path d="M65.3874 28.742C65.2108 29.7548 63.3161 30.0925 62.5454 30.6391C59.6873 31.7806 56.8613 33.2115 53.8747 33.8867C53.7623 33.8706 53.6499 33.8385 53.5857 33.7903C53.12 33.5009 53.377 32.6648 53.9871 32.5684C54.0513 32.5362 54.1156 32.5041 54.1798 32.488C54.8542 32.1825 55.5446 31.877 56.2511 31.5877C56.5562 31.459 56.8613 31.3304 57.1663 31.2018C57.6641 30.9928 58.1458 30.7838 58.6436 30.5587C59.7354 30.0764 60.8755 29.6584 61.9834 29.2082C62.3366 29.0635 62.6899 28.9027 63.0431 28.742C63.4124 28.5651 63.7657 28.3882 64.1189 28.2114C64.2474 28.1149 64.4079 28.0185 64.5685 27.9702C64.8896 27.8738 65.2108 27.9059 65.3874 28.2596C65.4034 28.4365 65.4195 28.5973 65.3874 28.742Z" fill="#252B31"/>
<path d="M65.6926 0.799649C65.6926 1.23374 65.4518 1.44275 65.1146 1.58744C64.7453 1.74822 64.2796 1.79645 63.9585 1.89291C63.4607 2.05369 62.979 2.21446 62.4813 2.37523C62.2244 2.45562 61.9514 2.55209 61.6945 2.63247C59.7356 3.27557 57.7606 3.91867 55.8338 4.64215C55.6411 4.72254 55.4324 4.78685 55.2397 4.86723C55.0149 4.94762 54.8061 5.04408 54.5813 5.12447C53.9551 5.33348 53.361 5.68718 52.7188 5.88011C52.5903 5.92834 52.4458 5.9605 52.3173 5.97657C51.7554 5.73541 51.7554 5.42994 52.0925 5.07624C53.2005 3.90259 58.0336 2.327 58.6437 2.10192C59.5589 2.00545 63.3965 0.156553 65.0022 0.269095C65.1788 0.285172 65.3394 0.317327 65.4518 0.397714C65.5963 0.478101 65.6766 0.60672 65.6926 0.799649Z" fill="#252B31"/>
<path d="M53.4732 8.6624C52.2208 7.85853 55.111 6.99035 55.1592 5.68808C55.3037 5.18968 55.2074 4.67521 55.2074 4.17681C55.7051 3.38902 55.8818 4.85206 55.8818 5.22184C55.9139 6.58842 54.8381 8.42124 53.4732 8.6624Z" fill="#252B31"/>
<path d="M64.4725 4.70631C62.6902 4.73847 60.4904 1.57122 61.9837 1.53906C62.0158 1.55514 62.0319 1.57122 62.0479 1.58729C62.5617 3.09857 64.2477 3.91852 65.7731 3.50051C65.9979 3.48443 66.1745 3.69343 66.2066 3.90244C66.2869 4.80278 65.0987 4.80278 64.4725 4.70631Z" fill="#252B31"/>
<path d="M56.3153 31.7649C55.673 30.6234 54.2279 30.318 53.0076 30.3501C52.2208 30.9611 51.691 28.7906 54.8541 29.4498C57.1824 29.6588 57.9049 32.392 56.3153 31.7649Z" fill="#252B31"/>
<path d="M61.9032 29.1281C61.5178 27.6972 62.4812 26.0574 63.6373 25.2535C64.0066 24.9962 65.1145 24.6265 64.9058 25.4464C63.6855 25.993 62.8024 27.2792 62.9951 28.694C63.0914 29.2889 62.2083 29.7552 61.9032 29.1281Z" fill="#252B31"/>
<path d="M58.5954 20.6071C55.7212 20.3016 56.0745 15.9446 58.5312 15.2855C63.0271 13.6456 63.1234 21.4431 58.5954 20.6071ZM59.3822 19.4495C60.8755 19.4656 61.598 17.3273 60.474 16.4109C59.896 15.9286 59.045 16.3626 58.499 16.025C56.8131 16.9254 57.2145 19.7871 59.3822 19.4495Z" fill="#252B31"/>
<path d="M28.3927 100.673C28.3927 100.85 28.3766 101.01 28.3606 101.187C28.2964 101.814 28.1358 102.393 27.8949 102.94C27.7986 103.165 27.6862 103.39 27.5577 103.615C26.1608 106.01 23.2385 107.698 21.0066 109.113C17.458 110.946 14.5518 113.776 12.7534 117.345C12.7213 117.377 12.6892 117.425 12.641 117.474C12.5125 117.634 12.3841 117.859 12.2556 118.133C11.8703 118.953 11.517 120.126 11.0995 120.914C10.7784 121.509 10.4412 121.879 10.0237 121.718C10.0237 121.718 10.0077 121.718 10.0077 121.702C9.815 121.605 9.7026 121.412 9.67049 121.155C9.65443 121.043 9.65443 120.93 9.67049 120.802C9.84711 118.47 13.781 112.715 14.7444 111.927C18.5017 107.586 25.8718 106.589 27.8307 100.833C27.8789 100.673 27.9271 100.512 27.9752 100.351C28.2161 100.174 28.3927 100.448 28.3927 100.673Z" fill="#252B31"/>
<path d="M37.9466 109.081C36.2286 113.76 32.407 117.023 28.2805 119.58C25.3581 121.284 22.8854 123.728 20.8141 126.381C20.3323 126.991 20.0594 128.213 19.1441 128.213C16.7677 126.991 14.6964 125.207 12.5127 123.663C12.1273 123.342 10.6983 122.474 10.0078 121.686C9.84727 121.493 9.71882 121.316 9.67065 121.139C9.62248 121.011 9.62248 120.898 9.67065 120.786C9.73488 120.625 9.87939 120.496 10.1524 120.4C10.4735 120.561 10.7946 120.737 11.1158 120.914C11.7099 121.252 12.2879 121.589 12.8659 121.959C13.171 122.152 13.4761 122.345 13.7812 122.554C14.7767 123.229 15.7562 123.937 16.7196 124.66C16.9604 124.837 17.2013 125.014 17.4261 125.191C18.0523 125.657 18.6624 126.139 19.2887 126.606C19.7543 125.882 20.2521 125.175 20.798 124.516C21.1031 124.146 21.4242 123.776 21.7614 123.406C23.1423 121.895 24.6998 120.544 26.3055 119.339C30.3999 116.814 34.5426 113.856 36.4534 109.322C36.5658 109.049 36.6782 108.76 36.7745 108.47C36.8548 108.358 36.919 108.229 36.9832 108.068C37.1759 107.554 37.2883 106.863 37.4649 106.3C37.6416 105.753 37.8985 105.303 38.3962 105.239C38.4283 105.239 38.4605 105.223 38.5086 105.223C39.8574 105.721 38.1714 108.133 37.9466 109.081Z" fill="#252B31"/>
<path d="M38.4284 106.525C38.2357 106.702 37.9467 106.734 37.7219 106.573C37.6416 106.477 37.5452 106.38 37.4489 106.284C36.9672 105.786 36.4373 105.335 35.8914 104.933C35.6827 104.789 35.4739 104.644 35.2652 104.499C34.093 103.744 32.7924 103.133 31.4918 102.554C31.1547 102.409 30.8175 102.265 30.4803 102.104C29.7577 101.798 29.0512 101.493 28.3608 101.155C28.2002 101.075 28.0396 101.011 27.8951 100.93C27.863 100.882 27.8309 100.834 27.8148 100.769C26.6106 98.1327 36.3731 103.133 36.8869 103.776C37.3044 104.065 38.0109 104.612 38.3802 105.191C38.6692 105.657 38.7656 106.123 38.4284 106.525Z" fill="#252B31"/>
<path d="M28.152 103.759C27.6703 103.791 26.7229 103.164 27.5257 102.859C27.9272 102.971 28.3446 102.939 28.7461 102.843C29.4204 102.65 30.1109 102.409 30.6889 102.007C30.8334 101.734 31.1225 101.38 31.4757 101.573C32.5355 102.971 29.1314 103.904 28.152 103.759Z" fill="#252B31"/>
<path d="M36.3088 109.225C35.1527 107.939 34.2696 105.367 35.6505 104C36.0198 103.888 36.2767 104.45 35.9555 104.659C35.5702 105.897 36.1964 107.232 37.0313 108.132C37.6254 108.582 36.951 109.692 36.3088 109.225Z" fill="#252B31"/>
<path d="M13.2031 122.859C12.0952 122.473 13.8935 120.271 12.8177 119.016C12.8338 119.033 12.8338 119.049 12.8498 119.065C12.609 118.615 12.2878 118.197 12.0791 117.73C12.2076 116.299 13.9417 118.904 14.038 119.386C14.2789 120.238 14.3592 122.762 13.2031 122.859Z" fill="#252B31"/>
<path d="M16.6714 125.496C15.4351 124.548 19.5295 123.149 20.2681 123.197C20.9104 123.165 22.2913 123.181 22.1468 124.114C22.0826 124.403 21.8578 124.612 21.5687 124.628C19.8667 124.162 18.1968 124.805 16.6714 125.496Z" fill="#252B31"/>
<path d="M23.7684 116.686C20.5731 115.56 22.1628 110.126 25.6471 111.991C28.2643 112.747 26.3054 117.458 23.7684 116.686ZM24.4268 115.368C25.2617 115.351 26.0164 114.306 25.6792 113.519C25.4865 113.197 25.0369 112.972 25.1654 112.522C22.7087 111.798 22.3394 115.11 24.4268 115.368Z" fill="#252B31"/>
<path d="M182.682 87.473C180.322 87.055 177.929 86.7495 175.617 86.0903C175.649 86.1064 175.681 86.1064 175.713 86.1225C174.316 85.5919 168.986 84.7559 168.632 83.5019C168.424 80.833 169.082 78.2124 169.917 75.7043C171.988 70.1898 177.624 66.8617 179.037 61.1703C179.069 61.0578 179.101 60.9453 179.117 60.8327C179.23 60.2861 179.326 59.7073 179.358 59.1124C179.374 58.8391 179.438 58.2603 179.583 57.8584C179.727 57.4565 179.968 57.2314 180.354 57.6976C180.386 57.9388 180.402 58.1799 180.418 58.405C180.45 59.032 180.418 59.6591 180.338 60.2861C180.289 60.688 180.225 61.0739 180.145 61.4758C180 62.1993 179.808 62.9228 179.615 63.6141C176.966 69.8039 172.309 72.1673 170.623 78.4696C170.543 78.759 170.479 79.0484 170.415 79.3539C170.19 80.3989 170.045 81.5565 170.013 82.8427C170.511 83.0035 170.993 83.1482 171.49 83.2929C171.86 83.4054 172.229 83.5179 172.598 83.6144C174.734 84.2253 176.902 84.7559 179.085 85.1739C179.342 85.2221 179.599 85.2704 179.84 85.3186C180 85.3508 180.161 85.3829 180.322 85.399C181.14 85.5758 181.992 85.608 182.81 85.7688C183.019 85.817 183.244 85.8652 183.453 85.9456C183.629 86.0582 183.726 86.2029 183.774 86.3636C183.934 86.9746 183.372 87.7141 182.682 87.473Z" fill="#252B31"/>
<path d="M191.755 69.3703C191.755 69.3864 191.755 69.3864 191.738 69.4025C191.722 69.4507 191.706 69.4829 191.69 69.5311C191.69 69.5472 191.674 69.5632 191.674 69.5632C190.213 73.0842 187.243 75.753 185.765 79.2579C184.946 81.2194 184.609 83.3094 184.015 85.3352C183.887 85.6246 183.887 86.0587 183.774 86.4124C183.678 86.7178 183.517 86.959 183.116 86.9429C182.811 87.0072 182.747 86.5571 182.811 85.8336C182.875 85.1744 183.052 84.3062 183.277 83.3898C183.373 82.9718 183.501 82.5377 183.614 82.1036C184.111 80.3029 184.69 78.6148 184.866 78.3093C187.628 73.1807 191.738 68.8076 191.899 62.9715C191.915 62.6178 191.899 62.2641 191.883 61.9104C191.835 61.1387 191.722 60.3509 191.53 59.5149C190.743 59.338 189.94 59.1933 189.137 59.0808C188.928 59.0486 188.704 59.0165 188.495 59.0004C186.825 58.7914 185.139 58.6949 183.469 58.6306C183.437 58.6306 183.421 58.6306 183.389 58.6306C183.212 58.5985 183.036 58.5824 182.843 58.5663C182.056 58.5341 181.173 58.6467 180.434 58.4538C180.145 58.3734 179.889 58.2448 179.664 58.0518C179.632 58.0036 179.616 57.9554 179.599 57.9071C179.246 56.4923 187.243 57.1515 188.126 57.2319C189.619 57.5856 191.642 57.4409 192.734 58.5824C193.89 62.1355 193.151 65.9619 191.755 69.3703Z" fill="#252B31"/>
<path d="M171.812 84.4986C170.64 84.1449 173.032 80.6722 169.949 79.0805C169.965 79.0966 169.965 79.0966 169.981 79.1126C169.451 78.3892 170.351 78.2123 170.88 78.6464C172.502 79.1609 173.578 84.177 171.812 84.4986Z" fill="#252B31"/>
<path d="M179.022 85.7205C178.957 83.8716 181.864 82.1996 183.55 82.087C184.77 81.8941 184.545 83.4858 183.453 83.3411C180.595 83.4536 179.487 86.444 179.022 85.7205Z" fill="#252B31"/>
<path d="M183.533 58.1316C183.533 58.2924 183.501 58.4371 183.469 58.5979C183.132 60.0449 181.622 61.2024 180.161 61.4918C179.856 61.5561 179.551 61.5722 179.246 61.5561C179.134 61.4114 179.085 61.2828 179.069 61.1703C179.037 61.0416 179.069 60.9291 179.15 60.8326C179.358 60.5593 179.888 60.4307 180.354 60.3021C180.579 60.2378 180.804 60.1735 180.932 60.0931C180.916 60.0931 180.884 60.1092 180.868 60.1252C181.639 59.8198 182.457 59.2892 182.827 58.5336C182.939 58.3085 183.019 58.0513 183.052 57.7779C183.276 57.3599 183.581 57.8262 183.533 58.1316Z" fill="#252B31"/>
<path d="M191.931 62.9386C186.938 62.5849 188.591 56.5719 189.266 58.3404C188.607 60.4948 190.631 61.6685 192.397 61.99C192.734 62.3437 192.413 63.019 191.931 62.9386Z" fill="#252B31"/>
<path d="M180.547 74.5152C176.661 73.8721 179.873 66.7498 183.02 69.6437C183.614 69.3383 183.806 70.319 183.967 70.7209C184.304 72.6985 182.731 75.0618 180.547 74.5152ZM181.607 73.438C182.827 73.3737 183.742 71.6695 183.052 70.6405C182.907 70.6566 182.779 70.528 182.779 70.3833C182.281 69.7402 181.013 69.7884 180.467 70.3672C179.471 71.6534 179.535 73.6631 181.607 73.438Z" fill="#252B31"/>
<path d="M185.396 148.117C185.299 148.117 185.187 148.101 185.043 148.053C182.811 144.451 181.285 140.352 178.861 136.815C176.34 132.393 172.679 128.294 171.683 123.197C171.683 123.052 171.732 122.876 171.828 122.779C171.86 122.763 171.876 122.731 171.908 122.715C171.972 122.683 172.037 122.651 172.101 122.651C172.342 122.634 172.518 122.94 172.647 123.31C172.839 123.808 172.968 124.435 173.145 124.692C173.241 124.917 173.353 125.159 173.466 125.384C173.594 125.673 173.739 125.962 173.883 126.252C176.276 130.93 179.68 135.046 182.056 139.757C182.104 139.837 182.136 139.902 182.168 139.982C182.184 139.998 182.201 140.03 182.201 140.046C182.201 140.062 182.217 140.062 182.217 140.078C182.217 140.095 182.233 140.111 182.233 140.127C182.265 140.207 182.313 140.271 182.345 140.352C183.068 141.654 183.694 143.005 184.304 144.371C184.384 144.548 184.464 144.725 184.545 144.902C184.834 145.529 185.123 146.172 185.428 146.799C185.54 146.911 185.637 147.088 185.685 147.265C185.861 147.651 185.781 148.101 185.396 148.117Z" fill="#252B31"/>
<path d="M197.84 142.57C197.712 142.699 197.471 142.699 197.134 142.522V142.506C196.877 141.654 196.588 140.818 196.267 139.982C196.138 139.66 196.026 139.355 195.881 139.033C194.597 135.93 192.895 133.004 190.952 130.239C188.752 127.683 186.777 124.966 185.155 122.039C184.947 121.686 184.754 121.316 184.561 120.946C184.144 120.142 183.758 119.322 183.389 118.502C182.763 119.001 182.04 119.371 181.302 119.692C181.029 119.805 180.772 119.917 180.499 120.03C179.728 120.335 178.957 120.625 178.251 121.027C177.93 121.123 176.95 121.638 175.858 122.152C175.618 122.265 175.377 122.377 175.136 122.49C174.221 122.892 173.321 123.245 172.679 123.326C172.133 123.39 171.796 123.261 171.844 122.795C171.876 122.779 171.892 122.747 171.924 122.731C172.39 122.345 172.968 122.072 173.562 121.83C174.188 121.573 174.847 121.332 175.409 120.994C175.393 121.011 175.361 121.027 175.345 121.027C177.994 119.531 180.9 118.47 183.501 116.975C184.754 117.313 185.508 120.158 186.327 121.252V121.236C188.864 125.962 192.766 129.741 195.143 134.58C195.56 135.175 198.739 141.734 197.84 142.57Z" fill="#252B31"/>
<path d="M197.727 143.503C193.874 145.497 189.603 146.847 185.492 148.166C185.46 148.15 185.428 148.133 185.412 148.117C185.283 148.037 185.219 147.957 185.219 147.86C185.219 147.683 185.412 147.474 185.749 147.233C186.183 146.928 186.873 146.574 187.66 146.236C187.933 146.124 188.206 145.995 188.495 145.883C190.679 144.982 193.216 144.13 193.585 143.889C193.729 143.841 193.858 143.793 194.002 143.744C194.211 143.68 194.42 143.6 194.629 143.535C195.48 143.23 196.331 142.924 197.133 142.49C197.23 142.442 197.326 142.394 197.406 142.33C197.599 142.33 197.76 142.41 197.856 142.555C198.033 142.844 198 143.294 197.727 143.503Z" fill="#252B31"/>
<path d="M188.174 146.895C187.901 146.831 187.788 146.51 187.676 146.285C187.098 145.111 185.621 144.966 184.465 144.87C184.32 145.014 184.063 144.918 184.063 144.709C184.32 143.889 185.749 144.436 186.391 144.42C187.259 144.323 189.747 146.606 188.174 146.895Z" fill="#252B31"/>
<path d="M194.195 144.082C192.445 141.751 197.31 136.734 196.668 139.661C195.431 140.513 194.356 141.911 194.548 143.519C195.19 143.6 194.628 144.484 194.195 144.082Z" fill="#252B31"/>
<path d="M184.882 135.191C182.586 135.143 182.201 130.963 184.32 130.32C184.416 129.869 184.93 129.918 185.283 129.853C185.267 129.853 185.267 129.853 185.251 129.853C188.864 129.757 188.399 135.352 184.882 135.191ZM185.123 134.114C186.68 134.017 187.724 131.975 186.215 131.027C185.669 130.448 184.834 131.429 184.384 130.786C183.132 131.461 183.485 134.371 185.123 134.114Z" fill="#252B31"/>
<path d="M173.53 126.348C172.374 125.754 174.349 124.998 174.509 124.307C175.119 123.535 175.023 122.522 175.312 121.654C176.629 121.043 175.184 125.287 174.606 125.593C174.333 125.914 174.012 126.364 173.53 126.348Z" fill="#252B31"/>
<path d="M183.678 122.088C182.731 122.136 179.407 119.869 180.434 118.953C180.643 118.905 180.788 119.114 180.9 119.258C181.414 119.918 182.136 120.384 182.891 120.721C182.875 120.705 182.843 120.705 182.827 120.689C183.517 121.011 184.256 120.946 184.995 120.93C185.268 120.946 185.444 121.252 185.46 121.493C185.46 122.393 184.272 122.12 183.678 122.088Z" fill="#252B31"/>
<path d="M159.769 59.804C159.625 58.7108 158.662 58.2606 157.634 57.923C157.136 57.7461 156.622 57.6014 156.189 57.4246C156.076 57.3763 155.98 57.3281 155.884 57.2799C154.214 56.685 152.544 56.0258 150.922 55.3023C148.048 53.8393 144.853 53.4213 141.77 52.6174C141.657 52.5853 141.545 52.5531 141.433 52.537C141.336 52.2798 141.079 52.1994 140.838 52.2476C140.517 52.2959 140.196 52.537 140.212 52.8747C136.712 61.878 133.517 71.0743 128.764 79.531C125.729 84.8526 123.321 90.6083 119.515 95.4315C118.937 96.2193 118.343 96.9911 117.733 97.7467C112.643 103.888 106.011 108.47 99.2354 112.683C99.0427 112.49 98.6894 112.538 98.2398 112.731C96.5057 113.47 93.3265 116.461 92.347 116.991C88.092 120.191 84.2865 123.937 80.5613 127.715C80.8343 122.731 80.7701 117.731 80.8022 112.731C80.8664 109.966 81.1394 108.888 80.8985 108.133C80.6256 107.313 79.7264 106.879 77.2536 105.062C76.6114 104.033 75.8246 103.1 74.9736 102.2C73.4803 100.608 71.7943 99.1294 70.3492 97.5216C67.2342 94.2097 64.36 90.6887 61.4698 87.1838C57.857 82.6661 54.7741 77.7946 51.9963 72.7303C51.9803 72.6981 51.9481 72.6499 51.9321 72.6177C49.1222 67.7141 47.0187 62.4246 44 57.6657C43.984 57.6336 43.9679 57.6175 43.9519 57.5853C43.9679 57.6014 43.984 57.6175 43.984 57.6336L44 57.6496C44 57.6336 43.984 57.6336 43.984 57.6175C43.5826 56.8619 42.6352 57.2959 42.8921 58.1159C42.8279 58.148 42.7637 58.1641 42.6994 58.1802C38.7013 59.7236 34.7995 61.46 31.0422 63.5179C30.7853 63.6626 30.5123 63.8073 30.2554 63.952C29.5329 64.3539 28.8264 64.7719 28.1199 65.206C26.8353 65.8813 28.0075 67.6498 28.3286 68.6305C29.0512 70.3508 29.5168 72.1675 30.2554 73.8557C30.9138 75.0293 32.2946 74.7399 33.3223 75.1419C35.1688 80.0616 37.7379 84.6918 40.3873 89.2257C42.1696 92.9235 44.7387 96.1229 47.1151 99.4348C52.7831 107.425 58.2103 115.577 62.4011 124.467C60.2977 129.918 62.8668 135.448 64.9381 140.48C64.9541 140.529 64.9702 140.577 64.9862 140.625C65.195 141.124 65.3716 141.638 65.5643 142.153C63.3966 151.638 62.0318 161.301 59.7036 170.754C59.6875 170.819 59.6715 170.883 59.6554 170.947C59.4948 171.558 59.3022 172.169 59.0934 172.764C58.8686 173.375 58.6117 173.97 58.3387 174.565C57.7768 175.786 57.1184 176.96 56.4119 178.118C55.9623 179.066 55.288 179.902 54.6778 180.754C54.6136 180.835 54.5493 180.931 54.4851 181.012C54.2282 181.381 53.9713 181.767 53.7465 182.153C53.6983 182.233 53.6502 182.33 53.602 182.426C53.5378 182.571 53.4735 182.716 53.4093 182.861C53.3933 182.909 53.3772 182.957 53.3611 183.005C53.329 183.375 53.4254 183.648 53.5859 183.841C53.8268 184.115 54.2122 184.195 54.5654 184.082C54.8705 183.986 55.1434 183.745 55.304 183.359C55.5128 183.986 55.7536 184.597 56.0105 185.208C56.1069 185.433 56.2032 185.658 56.2995 185.867C57.3111 188.086 58.5475 190.176 59.6875 192.33C59.7357 192.427 59.7839 192.507 59.8481 192.603C59.5109 193.488 58.4672 194.34 58.8365 195.337C59.7999 196.735 60.8115 194.774 61.229 193.922C62.2887 194.131 63.0273 192.668 62.3851 191.864C64.3922 188.327 66.1584 184.677 67.748 180.947C68.4224 179.372 69.0647 177.764 69.6748 176.156C71.7943 171.188 74.2992 166.381 76.1618 161.317C75.1823 166.172 74.3313 171.028 73.1752 175.851C72.7417 177.748 72.4366 179.645 72.2118 181.574C71.8907 184.259 71.714 186.96 71.4732 189.645C71.5374 191.06 70.0441 198.279 71.6016 198.423C72.7738 198.536 72.7577 197.137 72.7256 196.317C84.6558 194.71 96.4094 190.947 106.718 184.629C106.686 184.645 106.638 184.677 106.605 184.693C107.521 183.857 109.48 184.195 109.271 182.619C109.271 182.571 109.271 182.507 109.271 182.459C109.078 176.285 108.934 170.111 109.191 163.937V163.921C109.223 162.523 109.271 161.108 109.335 159.709C109.704 150.85 110.459 141.992 111.471 133.197C113.815 129.982 117.042 127.619 120.013 125.014C124.22 121.332 128.443 117.634 132.248 113.535C132.537 113.213 132.842 112.892 133.131 112.586C143.953 100.448 149.686 84.6597 154.583 69.4022C155.884 69.2093 158.051 69.6916 158.244 67.8749C158.758 65.19 159.93 62.5693 159.769 59.804ZM107.569 164.404C107.569 164.548 107.569 164.677 107.569 164.822C107.569 164.677 107.569 164.532 107.569 164.404ZM66.6562 139.162C66.6401 139.13 66.624 139.082 66.608 139.05L66.6562 139.162Z" fill="#FF6633"/>
<path d="M82.729 83.3577C81.7977 82.3609 83.1304 80.4477 84.3667 81.0747C85.8761 81.8786 83.9653 84.4831 82.729 83.3577Z" fill="#252B31"/>
<path d="M92.3148 91.0104C90.693 89.9332 90.388 86.4766 93.0534 87.184C96.2326 88.3255 95.3335 93.4702 92.3148 91.0104Z" fill="#252B31"/>
<path d="M81.8778 95.721C77.398 95.1583 79.1964 88.6952 81.5246 86.6534C81.926 86.1067 83.05 87.3447 83.5317 87.5376C84.5593 88.1164 85.5548 88.7434 86.6307 89.2097C86.6307 89.2097 86.6146 89.2097 86.6146 89.1936C86.6306 89.1936 86.6467 89.2097 86.6628 89.2097H86.6467C86.6628 89.2257 86.6949 89.2257 86.7109 89.2418H86.6949C87.3532 89.8045 89.6172 90.0296 88.9268 91.2193C87.1766 93.3898 84.8162 95.6085 81.8778 95.721ZM82.215 94.5313C83.4193 94.4027 84.5593 93.8239 85.5548 93.1647C85.5388 93.1808 85.5067 93.1968 85.4906 93.2129C86.1971 92.6985 86.8394 92.1036 87.4495 91.4766C87.4335 91.4927 87.4174 91.5087 87.4014 91.5248C87.4174 91.5087 87.4335 91.4927 87.4656 91.4605L87.4495 91.4766C87.4817 91.4444 87.4977 91.4283 87.5298 91.3962L87.5138 91.4123C87.6422 91.2836 87.7707 91.155 87.8991 91.0264C87.1926 90.7692 86.5504 90.3833 85.876 90.0939C85.892 90.11 85.9242 90.11 85.9402 90.1261C84.5112 89.3865 83.1463 88.5023 82.0063 87.3768C81.6531 88.1486 81.0911 88.8238 80.7699 89.6116C80.7699 89.5955 80.786 89.5794 80.786 89.5634C80.7699 89.5955 80.7699 89.6116 80.7539 89.6438C80.7539 89.6438 80.7539 89.6277 80.7699 89.6277C79.9189 91.2836 79.5817 94.5795 82.215 94.5313Z" fill="#252B31"/>
<path d="M86.438 86.203C85.1535 86.1226 82.7289 85.1579 83.4675 83.518C84.6236 82.5373 86.3738 82.8267 87.7868 82.4569C87.835 82.4409 87.8831 82.4409 87.9313 82.4248C87.8992 82.4248 87.8831 82.4409 87.851 82.4409C89.0231 82.1997 90.0026 81.5566 90.8536 80.7527C91.1587 80.3508 91.5601 80.9939 91.1426 81.1868C89.7296 83.5341 86.9036 83.9039 84.447 84.2576C85.0411 84.8846 85.9563 85.0615 86.7913 85.1579C86.7752 85.1579 86.7431 85.1579 86.727 85.1579C86.7752 85.1579 86.8394 85.174 86.8876 85.174C86.8715 85.174 86.8394 85.174 86.8234 85.174C87.273 85.3187 88.0919 84.9168 88.2364 85.5277C88.2685 86.3959 87.0161 86.219 86.438 86.203Z" fill="#252B31"/>
<path d="M99.6528 88.9366C99.1229 85.9301 97.9989 84.0169 94.6109 84.9494C93.9526 85.2709 93.4709 84.4349 93.9205 83.9365C94.4985 83.4542 95.3977 83.5507 96.1042 83.422C96.0881 83.422 96.056 83.422 96.04 83.422C98.031 83.213 99.8615 84.6118 100.199 86.5732C100.199 86.5571 100.199 86.5571 100.183 86.541C100.199 86.5893 100.199 86.6375 100.215 86.6857C100.215 86.6697 100.215 86.6697 100.199 86.6536C100.375 87.2002 100.857 89.6922 99.6528 88.9366Z" fill="#252B31"/>
<path d="M98.4482 84.6115C98.2556 84.5632 97.9505 84.5472 97.8702 84.3221C97.7899 84.2739 97.8381 84.097 97.9505 84.1131C98.8015 84.0488 99.6525 83.8398 100.504 83.8076C101.66 84.6115 98.8818 84.7079 98.4482 84.6115Z" fill="#252B31"/>
<path d="M99.2993 85.9457C99.1869 85.9457 99.0906 85.8814 99.0585 85.7849C98.93 85.5116 99.219 85.1258 99.5081 85.3026C100.118 85.2544 100.728 84.756 101.339 84.9328C101.579 85.0936 101.531 85.4634 101.274 85.592C100.632 85.7849 99.9576 85.8814 99.2993 85.9457Z" fill="#252B31"/>
<path d="M99.6203 86.9098C99.3634 86.2184 100.391 86.4274 100.76 86.1863C101.065 86.0577 101.676 85.8648 101.724 86.3631C101.74 86.5561 101.595 86.7651 101.403 86.7972C100.841 86.7811 100.118 87.2474 99.6203 86.9098Z" fill="#252B31"/>
<path d="M161.696 157.394C161.568 157.877 161.407 158.359 161.23 158.825C160.283 161.317 158.661 163.584 156.542 165.224C156.542 165.224 156.542 165.224 156.526 165.224C151.404 169.324 144.547 166.848 138.59 167.33C132.97 167.523 127.993 171.028 122.277 170.465C115.549 170.208 112.032 165.176 109.335 159.661C109.254 159.517 109.19 159.356 109.11 159.195C108.741 159.179 108.532 158.793 108.564 158.455C108.58 157.346 108.484 156.221 108.516 155.095C108.516 155.127 108.516 155.176 108.516 155.208C108.757 150.047 108.757 144.854 109.447 139.741V139.725C109.913 137.201 110.105 134.339 111.502 132.137C112.498 130.786 113.67 129.516 114.874 128.326C114.874 128.326 114.874 128.326 114.874 128.31C119.884 123.085 125.151 118.117 130.69 113.455C130.883 113.085 131.525 113.214 132.216 113.471C132.97 113.744 133.805 114.146 134.223 114.162C139.923 115.577 144.82 119.918 146.041 125.786C146.041 125.802 146.057 125.834 146.057 125.85C146.683 128.551 147.261 131.285 148.24 133.889C150.649 141.22 160.106 141.365 161.68 150.192V150.208C162.37 152.619 162.322 155.079 161.696 157.394Z" fill="#252B31"/>
<path d="M112.787 103.277C108.709 106.959 104.534 110.737 99.7007 113.39C99.7007 114.258 98.384 114.596 98.2234 113.631C98.2234 113.326 98.2234 113.02 98.2234 112.715C98.3519 108.952 99.6686 105.351 100.616 101.734C100.969 100.222 102.655 101.123 103.715 100.785C106.798 99.9009 104.437 97.1195 102.687 96.2031C102.703 96.2192 102.719 96.2191 102.719 96.2352C102.222 95.9137 101.13 95.5117 101.708 94.8043C101.852 94.322 101.997 93.8397 102.141 93.3413C103.008 90.3187 103.683 87.1676 103.378 84.0003C102.992 83.4537 103.137 82.682 102.88 82.071C102.125 80.5758 100.793 79.1449 99.0745 78.8877C98.8657 78.8073 98.8657 78.5018 99.0263 78.3732C99.9094 77.8587 101.033 78.4054 101.772 78.9359C99.9255 75.8169 96.7462 73.6625 95.4456 70.2059C93.9202 71.2349 92.2343 71.9905 90.6125 72.8426C91.5438 72.9391 93.294 74.997 91.8971 75.4793C90.9176 75.0452 91.3833 73.7751 89.4083 73.6465C88.8945 73.9841 88.4449 74.386 88.0274 74.8201C88.0435 74.804 88.0434 74.804 88.0595 74.788C87.3048 75.5275 86.5662 76.2832 85.9561 77.1353C86.3093 77.087 86.6947 77.1031 87.0479 77.2317C87.2888 76.8459 87.626 75.5597 88.1398 75.6722C88.7018 76.1545 87.5617 76.8137 87.3369 77.2639C87.4012 77.3121 87.4975 77.3764 87.4975 77.4568C87.7063 77.6176 87.8989 77.7944 88.0434 78.0195C88.3485 77.6658 88.3967 77.0227 88.8623 76.8459C89.5688 76.9423 88.9105 77.698 88.6697 77.9874C88.6536 78.0034 88.6536 78.0195 88.6376 78.0195C88.5252 78.1642 88.4128 78.3089 88.2843 78.4375C88.4288 78.6948 88.5412 78.952 88.6054 79.2414C88.8463 78.9359 89.055 78.5983 89.2959 78.3089C89.4404 78.1642 89.6652 78.116 89.8257 78.2768C90.1469 78.6948 89.617 79.0485 89.3601 79.3218C89.1514 79.5308 88.9426 79.7559 88.7339 79.9649C88.6857 80.5437 88.9105 81.653 88.1558 81.7816C87.9471 81.7816 87.7865 81.6048 87.7544 81.4118C87.7865 79.4665 87.3209 77.4568 84.9284 78.4536C84.2862 79.2414 83.4673 80.3668 82.6323 81.7173C82.5199 81.9102 82.4075 82.0871 82.2791 82.2961C79.4691 86.9425 76.4826 93.6307 77.7511 96.8944C79.983 100.801 82.6163 97.7465 81.4923 104.001C81.2675 104.74 81.3478 107.007 80.9142 108.1C80.7697 108.454 80.561 108.695 80.288 108.711C78.875 108.084 77.5744 107.087 76.5307 105.914C75.9206 105.303 75.1178 104.804 75.3104 103.84C74.9732 103.615 75.0856 103.213 75.0856 102.891C75.0535 102.65 75.0214 102.409 74.9893 102.168C74.2507 95.8654 76.1454 89.6113 78.2649 83.727C80.7858 77.4568 84.9284 71.5082 91.2227 68.6303C93.278 67.5531 95.3653 67.0708 97.3885 67.0708C102.318 67.0708 106.974 69.9004 110.443 73.8555C114.039 77.5211 115.661 82.5533 116.03 87.5856C116.03 87.6499 116.046 87.6981 116.046 87.7624C116.046 87.7785 116.046 87.7946 116.046 87.8107C116.046 87.875 116.063 87.9393 116.063 88.0036C116.239 91.2995 117.058 94.5471 117.732 97.7304C117.748 97.8108 117.765 97.8912 117.781 97.9716C118.519 99.3542 113.702 102.087 112.787 103.277Z" fill="#252B31"/>
<path d="M162.403 8.1959C162.274 8.74253 162.178 9.30524 162.146 9.85187C162.114 10.1091 161.937 10.3503 161.712 10.4307C161.616 10.4628 161.52 10.4628 161.407 10.4467C159.93 9.85187 161.905 6.31484 161.857 5.02865C160.412 6.39523 159.93 8.42098 158.886 10.0126C156.349 10.4789 159.512 4.7071 159.464 3.59776C158.79 4.14439 158.276 4.81964 157.826 5.5592C157.81 5.57528 157.81 5.57528 157.81 5.59136C157.152 6.2023 155.402 11.5722 154.695 8.85507C154.92 6.74893 156.413 4.96434 156.719 2.89035C156.51 3.08328 156.301 3.29229 156.108 3.5013C156.076 3.54953 156.028 3.58168 155.996 3.62992C152.014 8.37275 150.633 14.6269 149.124 20.4951C147.582 26.0257 146.555 31.6689 145.415 37.2799C145.415 37.2799 145.415 37.2799 145.415 37.296C145.415 37.3121 145.415 37.3282 145.399 37.3442C145.382 37.4407 145.366 37.5372 145.35 37.6336V37.6497C145.334 37.714 145.334 37.7622 145.318 37.8266C145.318 37.7944 145.334 37.7622 145.334 37.7301C145.302 37.8909 145.27 38.0356 145.254 38.1963C144.756 39.6755 143.167 49.756 141.802 52.6017C141.529 53.1644 141.272 53.4538 141.031 53.3252C140.678 53.1966 140.726 52.7464 140.871 52.2158C141.047 51.6049 141.368 50.8814 141.352 50.4955C142.3 46.3154 143.102 42.1031 143.986 37.9069C143.986 37.8909 143.986 37.8748 143.986 37.8748C144.355 35.7526 144.82 33.6625 145.206 31.5403C146.651 23.9518 148.337 16.3471 150.986 9.08016C151.998 6.65247 153.266 4.27301 155.065 2.32765C156.815 0.141119 158.533 0.848525 157.81 3.66207C159.464 1.25046 161.15 2.56881 160.283 5.07688C160.877 4.09616 162.499 2.42411 162.997 4.41771C163.077 5.7039 162.692 6.94186 162.403 8.1959Z" fill="#252B31"/>
<path d="M156.172 57.7944C156.172 57.8104 156.172 57.8263 156.172 57.8263C156.172 57.8422 156.172 57.8581 156.172 57.874C156.156 57.8422 156.172 57.8104 156.172 57.7944Z" fill="#252B31"/>
<path d="M164.169 12.4561C164.169 12.4561 164.169 12.4722 164.169 12.4561C161.327 22.408 160.154 32.7779 158.966 43.0192C158.79 46.701 158.26 50.3505 158.115 54.0323C157.874 54.5789 157.939 56.6689 157.65 57.9069C157.457 58.7269 157.088 59.1609 156.381 58.5018C156.221 58.2928 156.172 58.0677 156.188 57.8104C156.188 57.6818 156.205 57.5371 156.221 57.4085C156.847 47.9068 157.634 38.405 159.095 28.9837C160.235 22.0061 161.359 14.9642 164.217 8.4528C163.591 8.79043 162.338 11.0734 161.744 10.4303C161.648 10.3178 161.568 10.1249 161.503 9.83546C161.648 9.41745 162.001 8.79043 162.451 8.19556C163.398 6.94153 164.795 5.76788 165.839 6.61998C166.497 7.48816 164.426 11.186 164.169 12.4561Z" fill="#252B31"/>
<path d="M39.2633 3.59724C39.1349 4.22426 38.9101 4.86735 38.6371 5.46222C38.4444 6.02493 38.4926 7.0378 37.9306 7.27896C37.8022 7.3272 37.6577 7.34327 37.481 7.31112C35.9075 6.47509 38.4123 3.46862 38.2839 2.05381C36.9833 3.11492 36.1644 4.65835 35.4258 6.13747C35.3455 6.34647 35.1367 6.52333 34.928 6.57156C32.8727 6.50725 35.2812 2.93806 34.9119 1.7001C33.5792 3.99917 33.0975 6.73233 32.5837 9.32079C31.8451 12.6327 30.9299 15.8965 30.3679 19.2406C28.6177 26.7326 28.3929 34.4498 28.425 42.1187C28.7461 49.3053 29.1957 56.5401 31.0262 63.5016C31.0423 63.566 31.0583 63.6463 31.0744 63.7106C31.1225 64.1126 30.6087 64.3859 30.3197 64.0965C30.2876 64.0483 30.2715 64 30.2394 63.9357C28.4892 60.5273 28.1039 56.4597 27.59 52.6976C26.9317 46.4917 26.6427 40.2859 26.8514 34.0478C26.8514 33.8871 26.8675 33.7424 26.8675 33.5816C27.0762 25.366 28.8104 17.2952 30.8977 9.36903C31.524 6.5394 32.0699 3.61332 33.515 1.07309C34.7193 -0.93659 36.4855 0.124519 36.1965 2.21458C39.0867 -1.20991 39.8093 1.05701 39.2633 3.59724Z" fill="#252B31"/>
<path d="M41.7841 15.269C40.5798 20.2691 39.9215 25.3978 39.777 30.5586C39.8091 38.2115 41.3666 45.7518 42.9241 53.2117C43.2773 54.6747 43.5664 56.1538 43.9838 57.6169C43.9838 57.6169 43.9838 57.6169 43.9838 57.633C43.9838 57.649 43.9838 57.649 43.9838 57.6651C44.2247 58.4529 43.1328 59.1442 42.7154 58.2761C42.6993 58.2439 42.6993 58.2118 42.6832 58.1957C37.7699 41.2179 34.7191 21.5874 44.1284 5.63864C42.892 6.05665 41.3987 8.69334 40.4674 8.40395C39.0705 7.26245 41.7198 4.80261 41.5111 3.21095C40.0499 4.19167 39.4077 5.99234 38.2516 7.27853C38.1231 7.32676 38.0268 7.34284 37.9304 7.31069C37.5451 7.21422 37.6254 6.44251 37.8502 6.12096C38.3479 5.34924 38.7654 4.44891 39.2471 3.62896C39.7128 2.84117 40.2747 2.13376 41.0776 1.66752C43.165 0.686796 43.1007 3.7415 42.5709 4.97946C44.9312 2.92156 46.1194 4.48106 45.1078 7.05345C43.7912 9.69014 42.603 12.3911 41.7841 15.269Z" fill="#252B31"/>
<path d="M121.956 182.667C121.811 183.23 121.57 183.841 121.265 184.468C120.093 186.864 118.038 189.516 117.524 190.754C115.244 194.05 113.542 197.668 111.551 201.124C111.471 201.237 111.406 201.365 111.342 201.478C111.037 202.008 110.844 202.491 110.636 202.925C110.09 204.066 109.592 204.726 107.424 204.484C92.1863 203.809 76.7076 205.224 61.6303 202.475C58.7079 201.687 55.4163 201.639 52.7669 200.063C52.7027 200.031 52.6545 199.999 52.6063 199.967C51.9962 199.42 51.4342 198.825 50.9364 198.182C48.1747 194.693 46.9544 190.047 45.8464 185.802C45.6217 184.902 45.3808 183.584 45.3487 182.233C45.3326 181.687 45.3487 181.156 45.4129 180.642C45.6056 179.018 46.2639 177.635 47.8054 177.378C49.9249 178.262 52.2692 179.114 54.0675 180.609C54.212 180.722 54.3405 180.851 54.485 180.963C54.6134 181.076 54.7258 181.204 54.8543 181.317C55.047 181.317 55.2076 181.349 55.3681 181.429C56.2834 181.896 56.4279 183.809 56.9738 184.629C58.162 187.346 59.5911 190.015 61.4858 192.298C63.4286 188.745 65.227 185.127 67.1056 181.542C67.2501 181.253 67.4749 181.044 67.7318 180.915C68.053 180.754 68.4223 180.722 68.8076 180.802C69.6908 180.947 70.7987 180.674 71.5373 181.204C71.8905 181.156 72.0993 181.301 72.2117 181.526C72.3562 181.831 72.3401 182.282 72.2599 182.619C72.1475 183.921 72.1796 185.24 71.8906 186.526C71.5855 189.05 71.8103 191.606 71.8263 194.147C77.1251 194.291 82.3917 193.487 87.5299 192.169C87.9634 192.057 88.3969 191.944 88.8305 191.831H88.8144C88.8465 191.831 88.8626 191.815 88.8947 191.815H88.9107C95.1087 190.111 100.873 187.089 106.621 184.291C107.938 183.536 108.339 182.78 109.271 182.41C109.704 182.233 110.266 182.153 111.101 182.201C114.2 181.992 116.882 180.127 119.916 179.773C121.94 179.999 122.341 181.156 121.956 182.667Z" fill="#252B31"/>
<path d="M55.3523 181.461C55.3363 181.992 54.7903 182.506 54.2444 182.362C54.0838 182.297 53.9072 182.217 53.7466 182.137C51.7235 181.236 49.7485 180.159 48.1268 178.616C47.8538 178.776 47.6129 178.423 47.8377 178.198C48.3676 177.346 50.7761 179.757 51.9162 179.838C52.6227 180.095 53.3131 180.448 54.0517 180.625C54.2283 180.674 54.405 180.706 54.5816 180.722C54.6137 180.722 54.6298 180.722 54.6619 180.722C54.9027 180.738 55.1436 180.866 55.256 181.076C55.3362 181.204 55.3684 181.333 55.3523 181.461Z" fill="#252B31"/>
<path d="M90.6449 214.678C89.4246 216.929 87.5941 226.913 84.3506 225.627C82.9537 224.469 83.596 221.993 83.5157 220.353C70.59 218.954 57.6482 217.491 44.7707 215.659C33.4025 213.922 21.8095 212.363 11.0996 207.925C-1.72978 202.813 -4.7324 192.169 9.0122 185.529C18.7587 181.156 29.8539 179.951 40.4514 180.401C40.4193 180.401 40.3711 180.401 40.339 180.401C40.5477 180.401 40.7404 180.417 40.9491 180.417C41.3827 180.449 43.5503 180.449 45.4129 180.642C47.5164 180.867 49.2184 181.349 47.4843 182.427C46.7778 182.346 46.0552 182.282 45.3487 182.234C42.9402 182.073 40.5156 182.105 38.1071 182.041C37.8341 182.041 37.5612 182.025 37.2882 182.025C37.2561 182.025 37.24 182.025 37.2079 182.025C37.1597 182.025 37.0955 182.025 37.0473 182.025C28.3767 181.976 19.5615 183.247 11.3886 186.189C0.85536 190.53 -2.7253 197.989 8.56261 204.565C20.1235 210.24 33.1295 211.768 45.702 213.761C54.1639 215.064 62.674 215.932 71.168 216.977C71.6176 217.025 72.0672 217.089 72.5007 217.138C73.9458 217.315 75.3909 217.491 76.82 217.684C87.3693 219.389 84.1098 216.688 85.1213 224.485C86.422 223.504 86.5665 221.543 86.9839 220.064C87.6423 217.99 88.3327 215.932 89.0071 213.874C88.991 213.922 88.975 213.954 88.975 214.003C90.1792 210.514 90.3559 210.208 86.5825 209.276C82.9376 208.488 79.2446 207.877 75.5515 207.411C75.5355 207.411 75.5355 207.411 75.5194 207.411C75.1661 207.363 74.7968 207.33 74.4436 207.282C67.0896 206.35 59.7837 205.064 52.5261 203.568C46.9062 202.218 41.2382 201.06 35.5862 199.806C31.3793 198.665 26.6747 198.07 23.0137 195.674C22.5962 194.42 24.1538 194.211 25.0369 194.517C26.482 194.71 27.9432 194.645 29.3883 194.822C36.0358 195.337 42.5548 196.655 49.0899 197.877H49.106C49.2023 197.893 49.2826 197.909 49.379 197.925C49.4111 197.925 49.4432 197.941 49.4753 197.941C49.5235 197.941 49.5716 197.957 49.6359 197.973C49.7161 197.989 49.7964 198.006 49.8767 198.022C50.23 198.086 50.5832 198.134 50.9525 198.198C54.7419 198.826 58.5474 199.372 62.3689 199.597C64.665 202.298 56.5403 200.755 52.799 200.08C51.948 199.935 51.3218 199.822 51.097 199.822C51.0489 199.806 51.0007 199.806 50.9525 199.79C43.454 198.375 36.0197 196.655 28.3927 196.044C43.1971 199.79 58.1941 203.086 73.3196 205.256C77.9921 205.803 82.6647 206.478 87.2569 207.491C92.2345 208.552 92.3469 210.224 90.6449 214.678Z" fill="#252B31"/>
<path d="M167.412 201.719C167.412 201.832 167.396 201.96 167.38 202.073C166.16 217.78 149.798 226.092 136.327 230.08C125.504 233.44 114.297 235.224 103.153 237.122C94.8679 238.52 86.5826 239.887 78.2331 240.771C75.7122 241.125 73.2073 241.511 70.6864 241.88C69.9478 241.897 69.145 242.234 68.4064 242.234C68.1495 242.234 67.9086 242.202 67.6678 242.122C67.0737 241.527 67.459 240.884 68.0531 240.578C68.294 240.45 68.5669 240.385 68.8238 240.385C70.574 240.032 72.3403 239.758 74.1065 239.469C75.937 239.147 77.7835 238.89 79.63 238.649C80.0796 238.585 80.5292 238.536 80.9788 238.472C83.8209 238.118 86.679 237.797 89.505 237.347C106.83 234.388 124.461 232.298 141.144 226.51C146.892 224.34 152.576 221.655 157.232 217.571L157.12 217.668C164.602 211.687 169.644 198.873 161.134 191.639C156.654 187.153 150.135 186.349 144.162 185.32C136.583 184.018 128.908 184.018 121.249 184.452C120.238 184.516 119.226 184.565 118.231 184.645C117.958 184.983 117.588 184.725 117.235 184.774C115.469 183.616 118.15 182.989 121.956 182.651C127.319 182.185 134.962 182.314 135.684 182.362C143.086 183.005 150.713 183.793 157.65 186.59C162.852 189.34 167.22 194.388 167.428 200.417C167.445 200.851 167.445 201.285 167.412 201.719Z" fill="#252B31"/>
<path d="M138.478 208.424C138.446 208.44 138.43 208.456 138.398 208.472C138.333 208.52 138.253 208.568 138.189 208.617C138.173 208.633 138.157 208.633 138.141 208.649C127.206 215.819 114.393 219.196 102.254 223.762C95.1728 226.028 88.0275 228.135 80.8501 230.128C80.4808 230.241 80.0955 230.337 79.7262 230.45C75.1179 231.72 70.4935 232.942 65.8692 234.148C64.97 236.318 64.9379 238.681 64.6488 240.98C64.3919 243.312 64.0708 245.723 64.3919 248.071C64.4722 247.942 64.5364 247.813 64.6007 247.669C64.6007 247.653 64.6167 247.653 64.6167 247.636C65.4677 245.852 66.11 243.987 66.8326 242.17C67.0252 241.543 67.25 240.514 68.0368 240.578C68.085 240.578 68.1492 240.595 68.1974 240.611C68.7273 240.804 68.663 241.463 68.3901 242.251C67.9565 243.424 67.0574 244.887 66.945 245.514C66.3348 246.64 65.4035 250.595 63.6854 249.839C61.6623 247.524 63.4767 236.431 64.6007 233.488C65.4999 231.575 70.4453 231.447 72.4043 230.627C77.2213 229.373 81.9581 227.829 86.759 226.511C97.485 223.681 107.874 219.79 118.295 216.028C124.107 213.713 129.984 211.494 135.379 208.279C137.45 206.945 139.859 205.819 141.224 203.697C135.893 201.912 130.032 202.218 124.476 202.298C119.868 202.379 115.244 203.054 110.635 202.925C110.122 202.909 109.608 202.893 109.094 202.845C107.938 202.7 108.42 201.382 109.447 201.607C109.415 201.607 109.383 201.607 109.367 201.607C110.025 201.559 110.684 201.526 111.342 201.478C111.438 201.478 111.535 201.462 111.615 201.462C111.727 201.446 111.84 201.446 111.952 201.446C111.968 201.446 111.984 201.446 112 201.446H111.984C117.122 201.012 156.189 196.623 138.478 208.424Z" fill="#252B31"/>
<path d="M80.0474 239.694C79.084 239.919 79.935 232.074 79.7262 230.868C79.7584 230.241 79.4533 228.569 80.5451 228.955C80.9305 229.453 80.786 230.193 80.9144 230.787C80.9144 232.347 81.9421 239.517 80.0474 239.694Z" fill="#252B31"/>
<path d="M78.4739 232.249C77.9922 232.249 77.9279 231.59 78.2812 231.349C78.6665 231.06 81.059 230.61 80.3686 231.655C79.8066 231.992 79.1001 232.121 78.4739 232.249Z" fill="#252B31"/>
<path d="M78.1688 235.08C77.8637 233.81 82.5042 233.987 78.9235 235.241C78.9396 235.241 78.9396 235.225 78.9556 235.225C78.6987 235.385 78.2812 235.45 78.1688 235.08Z" fill="#252B31"/>
<path d="M78.6183 237.845C77.9118 237.315 78.9074 236.977 79.4051 236.993C79.6299 236.977 80.224 236.736 80.224 237.122C80.0474 237.347 79.6299 237.347 79.3891 237.556C79.4051 237.556 79.4212 237.54 79.4212 237.54C79.1482 237.636 78.9073 237.91 78.6183 237.845Z" fill="#252B31"/>
<path d="M71.1199 217.185C71.441 214.709 72.6132 212.378 73.3839 210.015C73.705 209.42 74.5881 205.577 75.5355 206.848C75.7763 207.04 75.6318 207.442 75.3589 207.539C74.556 210.385 73.8174 213.246 72.8701 216.06C72.6132 216.639 72.565 217.571 71.8103 217.7C71.4731 217.764 71.168 217.539 71.1199 217.185Z" fill="#252B31"/>
<path d="M75.2464 209.597C74.8289 209.372 73.8976 209.147 74.1706 208.504C74.2991 208.23 74.7647 208.166 74.8771 208.472C75.1501 208.568 75.4391 208.616 75.7121 208.745C76.2259 209.034 75.7281 209.838 75.2464 209.597Z" fill="#252B31"/>
<path d="M74.7327 212.668C74.5882 212.62 74.4598 212.588 74.3152 212.555H74.3313C74.3152 212.555 74.3153 212.555 74.2992 212.555C74.0262 212.475 73.7211 212.459 73.4482 212.33C73.1431 212.202 73.2555 211.736 73.5445 211.671C73.7212 211.639 73.8978 211.719 74.0744 211.687C74.0744 211.687 74.0744 211.687 74.0583 211.687C75.5356 211.366 75.8085 212.652 74.7327 212.668Z" fill="#252B31"/>
<path d="M73.7854 215.24C73.3198 215.143 72.1155 214.741 72.9183 214.211C72.9023 214.211 72.9023 214.227 72.8862 214.227C73.2716 214.146 73.7051 214.275 74.1226 214.259C74.7809 214.388 74.3634 215.433 73.7854 215.24Z" fill="#252B31"/>
<path d="M82.279 82.3285C81.7491 81.6854 83.5796 81.5889 83.9489 81.4443C84.3985 81.396 84.3824 82.1034 83.981 82.1677C83.419 82.232 82.8249 82.4732 82.279 82.3285Z" fill="#252B31"/>
<path d="M83.4513 83.1323C83.0017 83.068 83.2907 82.2642 83.66 82.5857C83.7885 82.5697 83.9169 82.5536 84.0454 82.5214C84.0454 82.5214 84.0454 82.5214 84.0293 82.5214C84.0454 82.5214 84.0614 82.5214 84.0614 82.5053H84.0454C85.3299 82.0873 85.057 83.4378 83.4513 83.1323Z" fill="#252B31"/>
<path d="M91.4475 88.3093C90.9498 87.5537 92.8605 87.409 93.3262 87.3286C93.6955 87.3447 93.6794 87.9235 93.3583 88.0038C92.7321 88.0842 92.0577 88.4218 91.4475 88.3093Z" fill="#252B31"/>
<path d="M93.2943 89.2252C93.0053 89.2734 92.7805 88.9358 93.0695 88.775C93.2461 88.7107 93.4388 88.6946 93.6315 88.6464C93.6315 88.6464 93.6315 88.6464 93.6154 88.6464C93.6315 88.6464 93.6636 88.6303 93.6796 88.6303C93.6636 88.6303 93.6475 88.6303 93.6475 88.6464C94.065 88.6143 94.9481 88.0837 95.0766 88.7107C95.0926 88.8876 94.9642 89.0644 94.7876 89.0966C94.2898 89.1609 93.792 89.2091 93.2943 89.2252Z" fill="#252B31"/>
<path d="M94.5464 90.4481C94.1931 90.5124 93.8559 90.1104 94.2573 89.9014C94.739 89.9336 95.863 89.2905 95.9915 89.9818C95.9594 90.7053 95.012 90.3998 94.5464 90.4481Z" fill="#252B31"/>
<path d="M154.005 68.4855C149.975 66.6044 145.752 65.2539 141.706 63.4211C141.16 62.9709 139.12 62.6011 139.458 61.7169C139.875 61.4114 140.919 62.2153 141.465 62.2957C143.568 63.2121 145.784 63.8713 147.919 64.7234C150.151 65.5433 152.399 66.315 154.519 67.3761C155.097 67.6977 154.647 68.7749 154.005 68.4855Z" fill="white"/>
<path d="M71.5214 112.956C69.7069 112.297 72.3081 110.078 72.8541 109.226C73.2394 108.776 76.5953 104.612 76.1939 106.959C74.9414 108.422 73.7532 109.949 72.6453 111.509C73.0146 111.444 73.3679 111.348 73.7211 111.252C73.689 111.268 73.673 111.268 73.6408 111.284C74.3313 111.091 75.0217 110.898 75.7122 110.689C75.6961 110.689 75.6961 110.689 75.6801 110.705C76.5311 110.592 79.5979 108.904 79.0199 110.866C77.8317 111.621 76.226 111.814 74.8612 112.297C74.8933 112.28 74.9093 112.28 74.9414 112.264C73.8335 112.586 72.6935 113.02 71.5214 112.956Z" fill="white"/>
<path d="M99.1387 122.265C97.822 120.882 97.1798 118.953 96.2966 117.281C96.2966 117.281 96.2966 117.281 96.2966 117.297C96.0558 116.943 96.0237 116.22 96.6017 116.236C97.9826 117.233 98.4482 119.259 99.5401 120.609C100.102 119.082 100.841 117.619 101.419 116.091V116.107C101.627 115.513 101.836 114.918 101.981 114.307C101.981 114.323 101.981 114.323 101.981 114.339C101.981 114.307 101.997 114.275 101.997 114.242C101.997 114.259 101.981 114.275 101.981 114.291C102.157 112.554 103.924 113.214 103.024 114.693C102.43 116.493 101.611 118.214 100.889 119.982C100.504 120.738 100.343 122.619 99.1387 122.265Z" fill="white"/>
<path d="M71.4731 166.027C70.2688 165.625 73.1751 161.702 73.5926 160.914C74.7969 160.641 73.3196 162.876 73.1591 163.326C72.5971 163.953 72.3723 166.139 71.4731 166.027Z" fill="white"/>
<path d="M68.5505 168.182C67.7637 167.443 69.2088 166.189 69.4818 165.417C69.8832 164.774 70.1883 164.066 70.6058 163.439C71.4247 162.925 70.7021 164.5 70.5897 164.79V164.774C70.2043 165.401 69.3694 168.6 68.5505 168.182Z" fill="white"/>
<path d="M65.2111 170.883C64.3761 170.16 65.8052 169.163 66.1102 168.456C66.1102 168.456 66.1102 168.456 66.1102 168.472C66.4314 168.214 67.7159 165.272 67.7801 166.848C67.4911 167.989 66.7364 169.018 66.1745 170.063C65.9818 170.433 65.7409 171.108 65.2111 170.883Z" fill="white"/>
<path d="M106.525 167.684C106.011 167.587 106.172 167.008 106.284 166.655C106.573 166.012 106.638 162.78 107.28 162.877C107.36 163.906 107.184 164.983 107.119 166.012C106.975 166.558 107.344 167.652 106.525 167.684Z" fill="white"/>
<path d="M104.1 171.783C103.04 171.622 104.678 168.471 104.662 167.619C104.662 167.635 104.646 167.651 104.646 167.667C104.662 167.619 104.678 167.571 104.678 167.506C104.678 167.522 104.662 167.538 104.662 167.555C104.839 167.137 104.726 166.381 105.192 166.172C105.593 166.204 105.352 166.702 105.352 166.96C105.112 167.844 105.128 171.863 104.1 171.783Z" fill="white"/>
<path d="M101.403 175.497C100.568 174.999 101.724 173.391 101.708 172.571C101.708 172.587 101.692 172.619 101.692 172.635C101.868 172.282 102.077 169.838 102.687 170.545C102.623 171.381 102.511 175.722 101.403 175.497Z" fill="white"/>
<path d="M96.1525 183.793C95.3175 183.375 96.1364 182.362 96.3933 181.783C97.0838 180.352 97.71 178.889 98.3523 177.426C98.5931 177.073 98.8661 174.452 99.4923 175.513C99.3157 176.622 99.107 177.748 98.6734 178.793C98.6895 178.777 98.6895 178.745 98.7055 178.728C98.6895 178.777 98.6734 178.825 98.6413 178.889C98.6253 178.905 98.6253 178.937 98.6092 178.954C98.6092 178.954 98.6092 178.954 98.6092 178.937C98.6092 178.954 98.6092 178.954 98.5931 178.97C98.5931 178.986 98.5771 179.018 98.5771 179.034C98.5771 179.034 98.5771 179.034 98.5771 179.018C98.561 179.066 98.5289 179.13 98.5129 179.179C98.5289 179.163 98.5289 179.13 98.545 179.114C98.4647 179.339 98.3844 179.564 98.3041 179.774C98.2881 179.806 98.2881 179.822 98.272 179.854C98.272 179.838 98.272 179.838 98.2881 179.822C97.8706 180.577 97.0677 184.05 96.1525 183.793Z" fill="white"/>
<path d="M76.274 155.963C76.4827 153.921 76.9484 151.911 77.1411 149.885C77.1411 149.918 77.1411 149.95 77.125 149.966C77.4461 145.657 78.3293 141.429 78.8752 137.136C79.0679 136.541 79.1642 130.576 80.1116 131.605C79.8225 134.612 79.6941 137.699 79.2766 140.721V140.705C79.2766 140.769 79.2606 140.834 79.2606 140.898V140.882C78.6825 145.014 78.3293 149.178 77.6228 153.294C77.3177 154.049 77.5264 156.268 76.6915 156.445C76.4506 156.477 76.258 156.22 76.274 155.963Z" fill="white"/>
<path d="M81.8457 130.979C80.9466 130.609 81.5567 128.986 82.2953 128.76C83.7725 128.696 83.066 131.269 81.8457 130.979Z" fill="white"/>
<path d="M90.7251 121.573C90.0508 120.786 91.0784 119.548 91.9775 119.692C93.23 120.255 91.7688 122.458 90.7251 121.573Z" fill="white"/>
<path d="M80.4488 145.303C79.4694 144.901 80.224 143.02 81.1232 143.036C82.2472 143.293 81.4604 145.544 80.4488 145.303Z" fill="white"/>
<path d="M77.5909 160.529C77.0611 160.127 77.8157 158.407 78.4259 158.986C78.5383 159.018 78.5865 159.146 78.5704 159.259C79.2448 159.854 78.3295 161.156 77.5909 160.529Z" fill="white"/>
<path d="M75.6159 177.603C75.2466 177.089 75.5356 176.172 75.9049 175.738C76.1939 175.513 76.5151 175.883 76.4348 176.188C77.1734 176.606 76.3866 178.246 75.6159 177.603Z" fill="white"/>
<path d="M66.7682 139.95C66.6076 139.226 64.5844 135.175 65.6442 135.126C65.6442 135.126 65.6442 135.126 65.6281 135.126C65.8047 135.143 65.8529 135.352 65.7887 135.496C65.9171 135.866 66.0777 136.204 66.2222 136.557C66.2222 136.541 66.2062 136.525 66.2062 136.509C66.6558 137.458 67.1053 138.39 67.6513 139.291C68.0045 139.853 67.1535 140.593 66.7682 139.95Z" fill="white"/>
<path d="M69.6429 139.757C69.4341 139.468 69.2896 139.146 69.1451 138.825C69.1451 138.841 69.1612 138.857 69.1612 138.873C69.1451 138.841 69.129 138.809 69.113 138.76C69.113 138.777 69.129 138.793 69.129 138.809C69.0969 138.519 66.849 134.339 67.8606 135.256V135.239C67.8606 135.223 67.8606 135.207 67.8445 135.191C68.2299 135.931 68.7116 136.638 69.1612 137.346C69.1451 137.33 69.1451 137.313 69.1451 137.313C69.2093 137.41 69.2575 137.506 69.3217 137.603C69.3217 137.603 69.3057 137.587 69.3057 137.571C69.5305 138.294 70.7829 139.034 70.253 139.789C70.0764 139.966 69.7874 139.966 69.6429 139.757Z" fill="white"/>
<path d="M89.2481 141.638C89.1357 141.541 89.0233 141.429 88.9269 141.316C88.943 141.332 88.959 141.349 88.9751 141.365C88.2365 140.48 87.4979 139.451 87.1928 138.342V138.358C87.1607 138.101 87.5782 138.004 87.5942 138.31C87.8672 138.808 88.2847 139.242 88.6058 139.709C88.943 140.352 90.3399 140.609 89.9224 141.477C89.794 141.67 89.4728 141.799 89.2481 141.638Z" fill="white"/>
<path d="M92.7001 141.895C91.8812 141.799 88.3808 138.776 89.3121 138.133C89.4405 138.101 89.5368 138.213 89.5368 138.326C90.131 139.258 91.0301 139.998 92.0738 140.4C92.5876 140.641 93.6313 140.625 93.3905 141.461C93.3263 141.734 93.0051 141.992 92.7001 141.895Z" fill="white"/>
<path d="M95.9755 141.461C95.3974 141.076 91.9613 139.452 92.9889 138.68C93.1013 138.632 93.2458 138.68 93.31 138.777C94.0005 139.468 94.8836 139.87 95.7988 140.207C96.987 140.4 96.9389 141.622 95.9755 141.461Z" fill="white"/>
<path d="M33.8037 74.1291C33.2417 73.293 34.5102 73.1483 35.024 72.875C38.4923 71.1065 42.105 69.4023 45.1879 67.0229C46.328 66.3476 46.6331 67.9393 45.2522 68.6145C43.518 69.8686 35.5057 74.8686 33.8037 74.1291Z" fill="white"/>
<path d="M62.722 121.236C62.6577 119.467 63.011 117.683 62.9307 115.914C63.1876 114.644 64.44 115.336 64.0386 116.429V116.413C63.878 118.053 63.7978 119.757 63.3321 121.332C63.1716 121.541 62.8022 121.525 62.722 121.236Z" fill="white"/>
<path d="M61.7747 118.471C61.7426 117.297 61.7587 116.107 61.7426 114.918C61.7426 114.934 61.7426 114.934 61.7426 114.95C61.7426 114.548 61.7105 114.162 61.6142 113.776C61.5178 113.278 62.2725 112.908 62.4812 113.455C62.8024 115.078 62.4652 116.799 62.2083 118.406C62.2083 118.406 62.2083 118.406 62.2083 118.39C62.1762 118.615 61.855 118.696 61.7747 118.471Z" fill="white"/>
<path d="M60.2491 116.396C60.0725 115.335 60.0083 114.242 59.7032 113.213C59.5908 112.666 58.9485 111.911 59.5908 111.493C60.6345 110.576 61.4695 117.956 60.2491 116.396Z" fill="white"/>
<path d="M112.289 97.0072C111.759 90.8496 109.801 84.4829 105.273 80.0938C103.619 78.5986 97.1478 73.4217 98.2557 71.1226C98.8016 71.0422 98.5768 71.8782 98.8177 72.1676C98.8177 72.1516 98.8016 72.1355 98.8016 72.1355C99.171 72.8429 99.7008 73.4538 100.215 74.0648C100.199 74.0487 100.199 74.0326 100.183 74.0326C102.109 76.3799 104.855 77.8269 106.958 79.9813C109.174 82.4411 111.037 85.3672 111.888 88.5987C112.145 89.274 114.264 99.3063 112.289 97.0072Z" fill="white"/>
<path d="M107.296 99.7083C107.296 95.4317 107.858 90.8175 105.963 86.8303C105.963 86.8463 105.979 86.8624 105.979 86.8785C105.851 86.2997 104.935 85.5923 105.433 85.0296C105.594 84.901 105.835 84.9653 105.915 85.1743C106.686 86.8946 107.777 88.5184 108.002 90.4316C108.002 90.4155 108.002 90.3995 107.986 90.3834C107.986 90.4155 108.002 90.4638 108.002 90.4959C108.002 90.4798 108.002 90.4477 107.986 90.4316C108.147 91.0908 109.158 102.827 107.296 99.7083Z" fill="white"/>
<path d="M153.282 156.269C149.461 153.937 144.965 152.089 143.214 147.603C139.329 140.625 142.123 130.127 134.239 125.593C131.975 123.728 127.35 124.146 126.451 120.979C126.467 120.834 126.564 120.673 126.724 120.673C127.029 120.673 126.933 121.027 127.045 121.22C127.045 121.204 127.029 121.188 127.029 121.188C127.19 121.509 127.463 121.734 127.752 121.927C127.736 121.927 127.72 121.911 127.72 121.911C128.972 122.699 130.449 122.94 131.862 123.31C134.367 124.114 136.872 125.48 138.381 127.699C140.806 130.866 141.464 134.789 141.834 138.664C142.685 144.114 144.419 150.224 149.717 152.876C150.328 153.31 156.124 155.851 153.282 156.269Z" fill="white"/>
<path d="M146.619 160.995C146.217 160.079 145.607 159.275 144.836 158.632C144.852 158.648 144.885 158.664 144.901 158.68C144.323 158.181 143.712 157.747 143.054 157.345C143.054 157.345 143.07 157.345 143.07 157.362C142.99 157.313 142.894 157.265 142.813 157.201C142.813 157.201 142.829 157.201 142.829 157.217C137.049 153.985 134.143 147.361 134.351 140.898C134.351 140.914 134.351 140.93 134.351 140.946C134.271 138.615 134.384 136.268 134.078 133.969C134.062 133.663 133.805 133.181 134.175 133.004C134.335 132.94 134.464 133.069 134.496 133.229C135.106 136.798 135.01 140.432 135.427 144.017C135.427 144.001 135.427 144.001 135.427 143.985C135.459 144.162 135.475 144.323 135.507 144.5C136.31 149.194 139.04 153.551 143.215 155.947C143.215 155.947 143.199 155.947 143.199 155.931C143.263 155.963 143.311 155.995 143.375 156.027C143.359 156.027 143.359 156.011 143.343 156.011C143.359 156.027 143.391 156.043 143.407 156.059C143.407 156.059 143.407 156.059 143.391 156.059C144.788 156.895 146.169 157.86 147.084 159.226C147.084 159.21 147.068 159.21 147.068 159.194C147.084 159.21 147.1 159.243 147.116 159.259C147.116 159.259 147.116 159.243 147.1 159.243C147.405 159.789 148.08 160.609 147.405 161.14C147.149 161.349 146.763 161.284 146.619 160.995Z" fill="white"/>
<path d="M116.352 161.365C112.851 154.596 118.278 147.812 120.093 141.413C121.233 137.12 120.462 133.664 119.113 129.596C119.065 129.274 119.563 129.114 119.611 129.499C119.82 130.721 120.559 131.766 120.976 132.924C121.586 134.869 121.747 136.975 121.57 139.001C121.57 138.985 121.57 138.969 121.57 138.953C121.57 139.017 121.554 139.066 121.554 139.13C121.554 139.178 121.538 139.21 121.538 139.258C120.992 146.509 113.879 153.133 117.187 160.593C117.187 160.577 117.171 160.577 117.171 160.561C117.62 161.076 116.849 161.976 116.352 161.365Z" fill="white"/>
<path d="M129.92 163.793C123.513 160.979 123.031 153.214 124.027 147.169C124.3 146.526 123.915 144.934 124.75 144.821C125.087 144.87 125.103 145.239 125.039 145.497C125.039 145.48 125.039 145.48 125.039 145.464C125.023 145.561 125.023 145.657 125.006 145.77C125.006 145.754 125.006 145.722 125.006 145.706C124.38 150.706 123.915 156.59 127.736 160.465C128.716 161.478 130 162.217 131.349 162.619C132.489 163.359 131.365 164.645 129.92 163.793Z" fill="white"/>
<path d="M136.712 162.571C133.677 161.896 131.028 159.355 130.16 156.365C130.096 155.834 129.647 154.87 130.193 154.532C130.755 154.58 130.385 155.481 130.626 155.867C131.525 158.584 134.094 160.819 136.92 161.269C137.691 161.397 137.45 162.667 136.712 162.571Z" fill="white"/>
<path d="M56.6686 254.195C56.5402 253.938 56.8292 253.697 56.9897 253.52C56.9737 253.536 56.9737 253.536 56.9576 253.552C57.6481 252.443 58.4349 253.536 57.3269 254.019C57.3269 254.019 57.343 254.019 57.343 254.003C57.2627 254.051 57.1985 254.099 57.1182 254.147C57.1343 254.147 57.1343 254.131 57.1503 254.131C57.0058 254.228 56.7971 254.421 56.6686 254.195Z" fill="white"/>
<path d="M102.559 190.079C102.093 189.532 102.944 189.146 103.265 188.793C103.907 188.214 104.485 187.49 105.256 187.088C106.139 187.313 104.614 188.342 104.421 188.728C103.891 189.146 103.361 190.481 102.559 190.079Z" fill="white"/>
<path d="M99.1548 193.6C99.1869 192.603 100.712 192.683 101.371 192.185C102.96 191.526 104.309 190.481 105.61 189.387L105.594 189.404C107.055 188.76 104.775 191.124 104.486 191.349C103.763 191.992 99.7007 194.886 99.1548 193.6Z" fill="white"/>
<path d="M101.371 195.819C101.226 195.176 102.109 195.192 102.479 194.919C102.479 194.919 102.463 194.919 102.463 194.935C103.057 194.758 103.747 193.777 104.309 193.938C104.614 194.163 101.451 196.736 101.371 195.819Z" fill="white"/>
<path d="M54.0193 185.609C53.7624 184.645 53.5215 183.648 53.3931 182.667C54.228 181.269 54.5492 184.709 54.9506 185.175C55.1593 185.722 54.2601 186.22 54.0193 185.609Z" fill="white"/>
<path d="M55.6412 190.047C55.1755 189.982 55.2719 189.452 55.4324 189.146C55.8981 187.924 55.8499 186.558 55.8339 185.272C56.5564 184.355 56.8133 190.497 55.6412 190.047Z" fill="white"/>
</svg>
