<svg width="198" height="255" viewBox="0 0 198 255" fill="none" xmlns="http://www.w3.org/2000/svg">
<path d="M43.7823 58.5043L30.3238 63.6887C29.4827 60.4793 27.6322 52.5794 26.9592 46.6545C26.1181 39.2483 30.3238 12.5861 31.165 10.3642L34.5296 1.47681L33.6885 5.92051L38.7354 2.21742L37.0531 7.40175L42.1 2.95804L40.4177 8.14236L44.6234 5.92051C44.3431 6.908 43.4458 9.17923 42.1 10.3642C40.4177 11.8454 39.5765 21.4735 38.7354 30.3609C38.0625 37.4708 41.8196 52.0857 43.7823 58.5043Z" fill="white"/>
<path d="M138.682 201.443C135.719 200.258 119.179 200.95 111.279 201.443C114.241 195.765 120.463 184.409 121.648 184.409C123.129 184.409 142.385 184.409 151.272 185.891C160.16 187.372 163.122 193.297 164.603 197C166.085 200.703 165.344 205.887 160.9 213.293C156.457 220.7 142.385 225.884 128.313 230.328C114.241 234.771 94.9853 236.253 80.9136 238.474C66.8419 240.696 67.5825 240.696 66.8419 244.399C66.1012 248.103 63.8794 248.103 63.8794 245.881C63.8794 243.659 65.3606 234.771 65.3606 234.031C65.3606 233.29 66.8419 233.29 80.173 230.328C93.5041 227.365 139.422 207.369 142.385 205.147C145.347 202.925 142.385 202.925 138.682 201.443Z" fill="white"/>
<path d="M50.4614 197.078C49.8587 196.454 46.6944 185.904 45.1876 180.706H29.3662C23.339 180.706 14.2981 183.045 8.27084 185.384C2.2436 187.723 -0.0166069 193.959 2.99701 201.755C6.01062 209.551 69.2965 217.347 72.3102 217.347C74.7211 217.347 81.8533 218.387 85.118 218.907C85.118 220.985 85.2687 225.143 85.8714 225.143C86.6248 225.143 89.6385 211.89 90.3919 211.111C90.9946 210.487 89.6385 210.331 88.885 210.331C87.6796 209.707 78.8397 207.992 74.5704 207.213C66.5341 205.913 49.256 203.003 44.4342 201.755C38.407 200.196 30.8729 198.637 26.3525 197.078C21.8321 195.519 21.0787 194.739 23.3389 193.959C25.5991 193.18 51.2148 197.857 50.4614 197.078Z" fill="white"/>
<path d="M157.197 58.5043L143.126 54.0606L141.645 52.5794C142.138 50.8513 143.57 45.1732 145.348 36.2858C147.125 27.3984 151.026 13.8204 152.754 8.14231L155.716 2.95801L157.197 2.95801L154.976 9.62356L159.419 3.69863L157.938 9.62356L162.382 4.43924L161.641 10.3642L163.863 8.14231C163.271 8.7348 159.172 41.9638 157.197 58.5043Z" fill="white"/>
<path d="M71.8323 182.304C70.4216 181.665 68.3327 181.56 67.4646 181.588L66.5965 181.615L77.1761 159.043C75.9826 167.063 73.243 182.944 71.8323 182.304Z" fill="white"/>
<path d="M100.712 114.07L80.4899 128.863L80.4898 110.956C80.4898 107.841 80.4898 107.063 81.369 103.17C82.2482 99.2767 80.4898 100.834 79.6105 99.2767C78.7313 97.7195 76.9729 97.7195 76.0937 96.9409C75.2144 96.1623 76.0937 96.1623 76.9729 89.9335C77.8522 83.7048 86.6446 75.9188 88.403 73.583C89.8098 71.7144 95.437 69.1709 98.0747 68.1328L105.109 78.2546L102.471 77.476C103.643 78.5141 106.164 81.0575 106.867 82.9262C107.57 84.7948 105.988 91.4907 105.109 94.6051C105.402 95.1242 106.515 96.4738 108.626 97.7195C111.263 99.2767 108.626 99.2767 108.626 100.055C108.626 100.834 105.988 100.055 105.109 100.834L104.229 101.613L100.712 114.07Z" fill="white"/>
<path d="M9.67041 121.123C9.62223 120.994 9.62223 120.881 9.67041 120.769C9.84703 118.438 13.7809 112.682 14.7443 111.894C18.5016 107.553 25.8717 106.556 27.8306 100.801C26.6264 98.164 36.3889 103.164 36.9027 103.807C37.3202 104.097 38.0267 104.643 38.396 105.222C38.4281 105.222 38.4602 105.206 38.5084 105.206C39.8732 105.704 38.1712 108.132 37.9625 109.081C36.2444 113.759 32.4229 117.023 28.2963 119.579C25.3739 121.283 22.9012 123.727 20.8299 126.38C20.3482 126.991 20.0752 128.213 19.16 128.213C16.7836 126.991 14.7122 125.206 12.5285 123.663C12.1431 123.341 10.7141 122.473 10.0237 121.685C9.81492 121.573 9.70252 121.38 9.67041 121.123Z" fill="white"/>
<path d="M52.7991 11.1056C52.8473 9.88369 52.6868 8.67789 52.3977 7.48816C52.3977 6.98976 51.3219 5.07655 52.0927 5.1087C53.2006 3.93505 58.0337 2.35947 58.6438 2.13438C59.559 2.00576 63.3966 0.156862 65.0023 0.269404C65.1468 0.10863 65.3074 0.205094 65.4519 0.398023C65.5964 0.47841 65.6767 0.607029 65.6927 0.799958C65.7409 0.9125 65.7891 1.00896 65.8212 1.07327C70.5579 8.79043 64.5366 17.4079 65.5803 25.6395C65.5322 26.5399 66.608 28.5174 65.3876 28.7264C65.211 29.7393 63.3163 30.0769 62.5456 30.6235C59.6875 31.765 56.8615 33.1959 53.875 33.8712C53.7626 33.8551 53.6502 33.8229 53.5859 33.7747C53.5538 33.7747 53.5217 33.7747 53.4896 33.7747C52.2532 33.0995 51.9 29.4177 51.4343 28.0029C50.1819 22.3276 52.2211 16.7166 52.7991 11.1056Z" fill="white"/>
<path d="M73.2718 55.8008C73.2718 55.7847 73.2878 55.7847 73.2878 55.7686C73.1594 54.7718 74.6848 53.1801 75.022 52.3924C76.3226 50.0451 77.0451 47.4727 77.6874 44.8842C78.7792 40.3665 80.69 35.7683 83.9656 32.4242C84.2546 32.0705 85.78 30.5914 86.631 30.2859C87.0646 29.5946 87.9637 30.3502 88.4775 30.7039C90.019 31.8294 91.5765 32.9387 93.0698 34.1606C94.2419 35.1735 97.1 36.2989 95.3338 38.0995C91.3196 43.3086 90.581 50.1576 87.8032 56.0098C87.2412 57.2317 86.5026 58.3571 85.8924 59.5468C85.8121 60.0452 85.3625 60.4954 84.8327 60.3668C83.3715 59.9166 71.65 57.9873 73.2718 55.8008Z" fill="white"/>
<path d="M101.515 26.8619C101.467 26.6368 101.483 26.476 101.564 26.3796C101.515 24.4342 103.876 22.5692 105.096 21.2509C110.411 16.1543 118.905 16.4598 124.139 11.3311C124.782 10.2861 125.424 10.5594 125.488 11.1543C126.789 12.1028 127.816 13.5337 128.812 14.7717C128.796 14.7395 128.78 14.7234 128.748 14.7074C129.615 15.7363 130.434 16.7814 131.204 17.8907C131.943 18.6946 132.585 19.82 131.654 20.7364C131.461 20.9454 131.237 21.3313 130.996 21.5885C130.964 21.6528 130.931 21.7171 130.867 21.7814C130.45 22.1994 129.984 22.5531 129.518 22.9229C126.211 25.3024 122.084 26.1384 118.536 28.0998C116.031 29.5629 113.542 31.2992 111.76 33.6305C111.695 33.8556 111.422 34.0163 111.23 33.8877C111.149 33.9038 111.085 33.9038 111.005 33.9038C110.459 33.743 110.025 33.3089 109.528 33.0356L109.512 33.0195C106.83 31.2349 104.502 28.9519 101.837 27.1513C101.66 27.2156 101.499 27.0387 101.515 26.8619Z" fill="white"/>
<path d="M168.649 83.5022C168.44 80.8334 169.098 78.2128 169.933 75.7047C172.005 70.1901 177.641 66.8621 179.054 61.1707C179.022 61.0421 179.054 60.9296 179.134 60.8331C179.246 60.2865 179.343 59.7077 179.375 59.1128C179.391 58.8395 179.455 58.2607 179.6 57.8588C179.246 56.444 187.243 57.1032 188.126 57.1835C189.619 57.5372 191.642 57.3925 192.734 58.534C193.89 62.1193 193.135 65.9457 191.739 69.3541C191.739 69.3702 191.739 69.3702 191.722 69.3863C191.706 69.4345 191.69 69.4667 191.674 69.5149C191.674 69.531 191.658 69.5471 191.658 69.5471C190.197 73.068 187.227 75.7368 185.749 79.2417C184.93 81.2032 184.593 83.2932 183.999 85.319C183.871 85.6084 183.871 86.0425 183.758 86.3962C183.935 86.975 183.357 87.7145 182.666 87.4733C180.306 87.0553 177.914 86.7499 175.601 86.0907C175.634 86.1068 175.666 86.1068 175.698 86.1228C174.317 85.5923 168.986 84.7563 168.649 83.5022Z" fill="white"/>
<path d="M186.311 121.219C188.848 125.946 192.75 129.724 195.126 134.564C195.576 135.175 198.739 141.718 197.84 142.57C198.032 142.844 198 143.294 197.727 143.503C193.874 145.496 189.603 146.847 185.492 148.165C185.46 148.149 185.428 148.133 185.412 148.117C185.315 148.117 185.203 148.101 185.058 148.053C182.827 144.451 181.301 140.352 178.877 136.815C176.356 132.393 172.695 128.294 171.699 123.197C171.699 123.052 171.747 122.875 171.844 122.779C171.876 122.763 171.892 122.731 171.924 122.715C172.39 122.329 172.968 122.056 173.562 121.814C174.188 121.557 174.846 121.316 175.408 120.978C175.392 120.994 175.36 121.01 175.344 121.01C177.993 119.515 180.9 118.454 183.501 116.959C184.737 117.313 185.492 120.142 186.311 121.219C186.311 121.236 186.311 121.236 186.311 121.219Z" fill="white"/>
<path d="M95.333 38.0837C91.3188 43.2928 90.5802 50.1418 87.8024 55.9939C87.2404 57.2158 86.5018 58.3412 85.8916 59.531C85.8113 60.0294 85.3618 60.4795 84.8319 60.3509C83.3547 59.9168 71.6492 57.9875 73.271 55.8171C73.271 55.801 73.287 55.801 73.287 55.7849C73.4958 55.4955 73.8651 55.3508 74.2023 55.5277C74.3147 55.592 74.4271 55.6402 74.5555 55.6885C75.246 56.01 75.9364 56.2833 76.659 56.5406C76.964 56.6531 77.2852 56.7496 77.6063 56.8621C79.1478 57.3605 80.7374 57.7303 82.311 58.1322C82.4555 58.1644 82.616 58.2126 82.7605 58.2448C82.8087 58.2609 82.8569 58.2769 82.9211 58.293C83.6116 58.4699 84.3181 58.5342 84.9924 58.7593C85.3778 58.1322 85.7311 57.4891 86.0522 56.83C86.2288 56.4763 86.3894 56.1386 86.55 55.7849C88.8943 50.5115 89.7453 44.5468 92.6355 39.5789C92.8282 39.2413 93.0369 38.9037 93.2617 38.5821C93.5989 38.0676 93.9682 37.5692 94.3696 37.0869C93.6792 36.6046 93.0209 36.1062 92.3625 35.6078C92.1538 35.4631 91.9611 35.3023 91.7524 35.1415C90.9174 34.4984 90.0825 33.8554 89.2314 33.2123C89.0388 33.0676 88.8621 32.9389 88.6695 32.7942C88.5892 32.6978 88.4928 32.6174 88.3804 32.5209C87.8827 32.119 87.1601 31.7814 86.8069 31.283C86.6302 31.0418 86.5339 30.7846 86.5821 30.463C86.6142 30.3987 86.6463 30.3344 86.6784 30.2862C87.1119 29.5948 88.0111 30.3505 88.5249 30.7042C90.0664 31.8296 91.6239 32.9389 93.1172 34.1608C94.2412 35.1576 97.0993 36.2991 95.333 38.0837Z" fill="#252B31"/>
<path d="M87.1765 30.9131C87.0319 31.0256 86.9035 31.1542 86.759 31.2828C86.1809 31.8134 85.619 32.3761 85.1051 32.971C84.8964 33.2121 84.7037 33.4533 84.495 33.6945C82.2631 36.4758 80.6895 39.7717 79.5816 43.148C78.8269 46.3474 77.9599 49.5468 76.4666 52.4568C76.3221 52.7462 76.1615 53.0356 76.0009 53.325C75.6316 53.9841 75.2302 54.6112 74.7806 55.2221C74.7003 55.3507 74.62 55.5115 74.5237 55.6723C74.2989 56.0903 74.0099 56.4761 73.5121 56.2511C73.3516 56.1064 73.2713 55.9456 73.2552 55.7687C73.1268 54.7719 74.6522 53.1803 74.9893 52.3925C76.29 50.0452 77.0125 47.4728 77.6548 44.8843C78.7466 40.3666 80.6574 35.7684 83.933 32.4243C84.222 32.0706 85.7474 30.5915 86.5984 30.286C87.048 30.1413 87.2889 30.27 87.1765 30.9131Z" fill="#252B31"/>
<path d="M76.7395 57.9394C75.7922 57.4088 77.8956 55.2223 76.3381 53.3734C75.6155 53.6145 75.6156 51.637 76.7877 52.682C77.8314 53.6949 78.0883 55.3027 77.6708 56.6692C77.4942 57.1355 77.4299 58.0841 76.7395 57.9394Z" fill="#252B31"/>
<path d="M82.4399 59.0158C81.2999 58.1798 84.2544 56.1541 85.0732 55.945C85.555 55.8647 86.149 55.5753 86.6147 55.8004C86.9679 56.0897 86.7753 56.7328 86.3257 56.8132C84.8806 56.8132 83.4836 57.4885 82.6005 58.63C82.729 58.7586 82.6326 59.0158 82.4399 59.0158Z" fill="#252B31"/>
<path d="M86.7433 34.1283C86.5827 34.1283 86.4061 34.1122 86.2455 34.0961C86.2616 34.0961 86.2937 34.0961 86.3098 34.0961C86.2776 34.0961 86.2295 34.0961 86.1974 34.08H86.2134C86.1973 34.08 86.1652 34.08 86.1492 34.08H86.1652C86.1652 34.08 86.1652 34.08 86.1492 34.08H86.1652C85.6193 34.08 83.275 33.5816 84.126 32.7939C85.0091 32.9546 85.9083 33.1476 86.8236 33.0511C87.498 32.9868 88.1884 32.7135 88.6862 32.2472C88.8949 32.1025 89.1839 32.1508 89.3284 32.3598C89.6977 33.0993 88.7183 33.6299 88.1563 33.8389H88.1723C88.1563 33.8389 88.1402 33.855 88.1242 33.855H88.1402C87.6906 34.0318 87.2089 34.1444 86.7433 34.1283Z" fill="#252B31"/>
<path d="M92.4111 39.4661C90.6609 38.9034 91.3995 33.5336 92.4272 35.1734C92.4914 35.3181 92.4753 35.5111 92.3148 35.5754C92.2184 36.6686 92.2827 37.8101 93.214 38.5497C93.5672 39.0481 92.9571 39.8681 92.4111 39.4661Z" fill="#252B31"/>
<path d="M84.0455 48.1636C81.0589 47.2793 82.5362 42.6329 85.4585 43.276C86.3416 42.7133 87.0802 44.2246 87.2569 44.932V44.9159C87.2569 44.932 87.2729 44.9642 87.2729 44.9802C87.2729 44.9642 87.2569 44.9481 87.2569 44.932C87.8028 46.7327 85.8599 48.6941 84.0455 48.1636ZM84.8162 47.0221C86.1971 46.9738 86.9036 45.2696 85.7315 44.4014C85.4906 44.2728 85.2176 44.1281 85.2337 43.8227C83.0982 43.7423 82.3756 46.9578 84.8162 47.0221Z" fill="#252B31"/>
<path d="M125.086 12.1985C125.006 12.2789 124.926 12.3593 124.846 12.4236C124.268 12.9863 123.641 13.4847 122.999 13.9349C122.79 14.0796 122.598 14.2082 122.373 14.3368C116.801 17.8578 109.303 18.2115 104.694 23.3241L104.678 23.3402C104.469 23.5492 104.261 23.7582 104.052 23.9833C103.891 24.1601 103.731 24.337 103.586 24.5138C103.121 25.0765 102.719 25.6875 102.446 26.3788C102.414 26.4753 102.366 26.5717 102.35 26.6682C102.27 26.9737 101.868 27.1505 101.627 26.8933C101.579 26.7164 101.563 26.5396 101.563 26.3627C101.515 24.4174 103.875 22.5524 105.096 21.234C110.411 16.1375 118.905 16.443 124.139 11.3143C124.781 10.2692 125.424 10.5426 125.488 11.1374C125.52 11.459 125.408 11.8448 125.086 12.1985Z" fill="#252B31"/>
<path d="M130.98 21.5878C130.947 21.6521 130.915 21.7164 130.851 21.7807C130.434 22.1988 129.968 22.5525 129.502 22.9222C126.195 25.3017 122.068 26.1377 118.519 28.0992C116.015 29.5622 113.526 31.2986 111.744 33.6298C111.679 33.8549 111.406 34.0156 111.214 33.887C111.182 33.8709 111.165 33.8388 111.133 33.8066C111.117 33.4047 111.23 33.0028 111.438 32.633C111.744 32.0542 112.257 31.5236 112.787 31.0092C112.98 30.8323 113.157 30.6555 113.349 30.4947C113.767 30.1088 114.168 29.7391 114.457 29.4014C118.102 25.9126 123.128 24.8837 127.431 22.5525C127.752 22.3756 128.057 22.1988 128.362 22.0219C128.699 21.8129 129.037 21.6039 129.358 21.3788C129.326 21.3949 129.31 21.411 129.278 21.4431C129.55 21.2502 129.823 20.9608 130.129 20.8C130.257 20.7357 130.401 20.6875 130.562 20.7036C131.012 20.7357 131.14 21.2341 130.98 21.5878Z" fill="#252B31"/>
<path d="M131.654 20.7353C131.461 20.9443 131.237 21.3301 130.996 21.5874C130.755 21.8285 130.482 21.9411 130.145 21.6517C129.888 21.3462 129.968 21.0407 130.161 20.7513C130.321 20.5102 130.53 20.2851 130.691 20.0922C130.691 20.0922 130.691 20.0922 130.707 20.0761C130.707 20.0761 130.723 20.06 130.723 20.0439C130.787 19.9635 130.835 19.8831 130.899 19.8028C130.402 19.2561 129.936 18.6773 129.502 18.0825C129.374 17.9217 129.262 17.7609 129.149 17.6002C128.443 16.6194 127.784 15.6226 127.078 14.6258C126.917 14.4008 126.757 14.1757 126.596 13.9667C126.596 13.9506 126.58 13.9506 126.58 13.9345C126.58 13.9345 126.58 13.9184 126.564 13.9184C126.098 13.3236 125.585 12.7769 125.119 12.1821C125.055 12.1017 124.99 12.0213 124.926 11.9248C124.75 11.957 124.637 11.7962 124.637 11.6354C124.284 11.3621 124.428 10.7512 124.894 10.7351C125.103 10.8476 125.312 10.9923 125.52 11.137C126.821 12.0856 127.849 13.5165 128.844 14.7545C128.828 14.7223 128.812 14.7062 128.78 14.6901C129.647 15.7191 130.466 16.7641 131.237 17.8735C131.943 18.6934 132.585 19.8188 131.654 20.7353Z" fill="#252B31"/>
<path d="M111.23 33.871C111.149 33.8871 111.085 33.8871 111.005 33.8871C110.459 33.7263 110.025 33.2922 109.528 33.0189L109.512 33.0028C106.83 31.2182 104.502 28.9352 101.837 27.1346C101.66 27.231 101.515 27.0542 101.515 26.8773C101.467 26.6522 101.483 26.4915 101.564 26.395C101.692 26.2181 102.013 26.2503 102.463 26.4271C102.864 26.5879 103.378 26.8612 103.94 27.1989C104.213 27.3757 104.502 27.5526 104.807 27.7455C106.124 28.6298 107.585 29.723 108.645 30.5108C108.885 30.6877 109.094 30.8484 109.287 30.9931C109.688 31.2986 109.993 31.4915 110.106 31.5558L110.122 31.5719C110.587 31.9095 111.037 32.2632 111.455 32.6491C111.519 32.7134 111.583 32.7616 111.631 32.826C111.888 33.1636 111.647 33.7584 111.23 33.871Z" fill="#252B31"/>
<path d="M104.165 28.3564C103.346 28.2117 104.534 26.0573 103.812 24.9319C103.812 24.948 103.828 24.964 103.828 24.9801C103.747 24.8193 103.667 24.6425 103.555 24.4978C103.458 24.4978 103.394 24.4335 103.346 24.3692C103.009 23.5171 104.068 23.7743 104.309 24.3531C104.887 25.0766 105.385 28.1795 104.165 28.3564Z" fill="#252B31"/>
<path d="M108.484 31.1855C107.729 30.4298 110.138 29.8832 110.652 29.7868C111.342 29.6581 114.04 29.6903 113.189 30.8961C112.627 31.2016 111.952 30.5906 111.342 30.6389C110.347 30.5263 109.399 30.9604 108.484 31.1855Z" fill="#252B31"/>
<path d="M124.123 15.1732C123.417 14.9642 122.036 14.6748 122.213 13.7101C122.277 13.5976 122.421 13.5172 122.534 13.6137C123.272 14.4015 124.653 14.4015 125.649 14.2246C125.633 14.2246 125.617 14.2407 125.585 14.2407C125.922 14.1442 126.291 14.096 126.596 13.9031C126.773 13.7262 126.885 13.4529 127.158 13.4047C127.56 13.3404 127.72 13.8548 127.511 14.1282C126.821 15.2214 125.28 15.3822 124.123 15.1732Z" fill="#252B31"/>
<path d="M127.479 22.6496C126.933 20.9775 127.736 18.7749 129.069 17.6495C129.518 17.2154 129.887 18.0836 129.341 18.1318C128.41 19.1447 128.137 20.7042 128.394 22.0386C128.587 22.5692 127.864 23.1801 127.479 22.6496Z" fill="#252B31"/>
<path d="M116.272 25.3019C113.285 25.0447 113.959 20.4626 116.769 20.6234C120.141 19.7391 119.371 25.8807 116.272 25.3019ZM116.673 24.1443C117.765 24.2247 118.6 22.5527 117.749 21.8292C117.283 21.6523 116.496 21.797 116.561 21.0736C114.698 21.3308 114.586 24.3051 116.673 24.1443Z" fill="#252B31"/>
<path d="M53.5858 33.8068C53.5536 33.8068 53.5215 33.8068 53.4894 33.8068C52.253 33.1315 51.8998 29.4498 51.4341 28.035C50.1978 22.3436 52.2209 16.7326 52.799 11.1215C52.8471 9.89966 52.6866 8.69385 52.3976 7.50412C52.3976 7.00572 51.3217 5.09251 52.0925 5.12467C52.1567 5.12467 52.2209 5.14075 52.3012 5.1729C52.4618 5.43014 52.5902 5.68738 52.7187 5.94462C53.0238 6.55556 53.2486 7.15042 53.4252 7.76136C53.5055 8.05076 53.5858 8.35623 53.65 8.64562C54.8703 14.6907 51.0648 21.0574 53.1522 29.4176C53.2325 29.7392 53.3128 30.0446 53.4091 30.3662C53.6179 31.0736 53.8748 31.781 54.1799 32.5206C54.228 32.6331 54.2762 32.7456 54.3244 32.8421C54.4047 33.2923 54.0514 33.8068 53.5858 33.8068Z" fill="#252B31"/>
<path d="M65.3876 28.7427C65.2913 28.7588 65.1789 28.7588 65.0343 28.7588C64.6972 28.6462 64.6169 28.2925 64.5366 27.971C64.5205 27.9067 64.5045 27.8424 64.4884 27.778C64.3439 27.151 64.2315 26.524 64.1512 25.897C64.1191 25.6076 64.087 25.3182 64.0709 25.0127C63.6535 18.6943 66.5919 12.4884 66.4152 6.17002C66.3992 5.543 66.2707 4.94814 66.0941 4.36935C65.9978 4.07996 65.9014 3.79056 65.789 3.50117C65.5642 2.85807 65.3073 2.23106 65.1146 1.57188C65.0022 1.2021 64.922 0.832321 64.8738 0.462541C64.922 0.366077 64.9541 0.301767 65.0022 0.253535C65.1467 0.0927606 65.3073 0.189225 65.4518 0.382154C65.5482 0.494696 65.6284 0.65547 65.6927 0.800166C65.7408 0.912708 65.789 1.00917 65.8211 1.07348C70.5579 8.79064 64.5366 17.4081 65.5803 25.6398C65.5161 26.5401 66.6079 28.5176 65.3876 28.7427Z" fill="#252B31"/>
<path d="M65.3876 28.742C65.211 29.7548 63.3163 30.0925 62.5456 30.6391C59.6875 31.7806 56.8615 33.2115 53.875 33.8867C53.7626 33.8706 53.6502 33.8385 53.5859 33.7903C53.1203 33.5009 53.3772 32.6648 53.9874 32.5684C54.0516 32.5362 54.1158 32.5041 54.18 32.488C54.8544 32.1825 55.5449 31.877 56.2514 31.5877C56.5564 31.459 56.8615 31.3304 57.1666 31.2018C57.6643 30.9928 58.146 30.7838 58.6438 30.5587C59.7357 30.0764 60.8757 29.6584 61.9836 29.2082C62.3369 29.0635 62.6901 28.9027 63.0434 28.742C63.4127 28.5651 63.7659 28.3882 64.1192 28.2114C64.2476 28.1149 64.4082 28.0185 64.5687 27.9702C64.8899 27.8738 65.211 27.9059 65.3876 28.2596C65.4037 28.4365 65.4198 28.5973 65.3876 28.742Z" fill="#252B31"/>
<path d="M65.6925 0.799649C65.6925 1.23374 65.4517 1.44275 65.1145 1.58744C64.7452 1.74822 64.2795 1.79645 63.9584 1.89291C63.4606 2.05369 62.9789 2.21446 62.4812 2.37523C62.2242 2.45562 61.9513 2.55209 61.6944 2.63247C59.7354 3.27557 57.7605 3.91867 55.8337 4.64215C55.641 4.72254 55.4322 4.78685 55.2396 4.86723C55.0148 4.94762 54.806 5.04408 54.5812 5.12447C53.955 5.33348 53.3609 5.68718 52.7186 5.88011C52.5902 5.92834 52.4457 5.9605 52.3172 5.97657C51.7552 5.73541 51.7552 5.42994 52.0924 5.07624C53.2003 3.90259 58.0334 2.327 58.6436 2.10192C59.5588 2.00545 63.3964 0.156553 65.0021 0.269095C65.1787 0.285172 65.3393 0.317327 65.4517 0.397714C65.5962 0.478101 65.6765 0.60672 65.6925 0.799649Z" fill="#252B31"/>
<path d="M53.4731 8.66216C52.2207 7.85829 55.1109 6.99011 55.1591 5.68784C55.3036 5.18944 55.2072 4.67496 55.2072 4.17656C55.705 3.38877 55.8816 4.85182 55.8816 5.2216C55.9138 6.58817 54.8379 8.421 53.4731 8.66216Z" fill="#252B31"/>
<path d="M64.4724 4.70631C62.6901 4.73847 60.4903 1.57122 61.9836 1.53906C62.0157 1.55514 62.0318 1.57122 62.0478 1.58729C62.5616 3.09857 64.2476 3.91852 65.773 3.50051C65.9978 3.48443 66.1744 3.69343 66.2065 3.90244C66.2868 4.80278 65.0986 4.80278 64.4724 4.70631Z" fill="#252B31"/>
<path d="M56.3153 31.7647C55.673 30.6232 54.2279 30.3177 53.0076 30.3499C52.2208 30.9608 51.691 28.7904 54.8541 29.4495C57.1824 29.6586 57.9049 32.3917 56.3153 31.7647Z" fill="#252B31"/>
<path d="M61.9032 29.1279C61.5178 27.697 62.4812 26.0571 63.6373 25.2532C64.0066 24.996 65.1145 24.6262 64.9058 25.4462C63.6855 25.9928 62.8024 27.279 62.9951 28.6938C63.0914 29.2887 62.2083 29.7549 61.9032 29.1279Z" fill="#252B31"/>
<path d="M58.5951 20.6071C55.721 20.3016 56.0742 15.9446 58.5309 15.2855C63.0268 13.6456 63.1232 21.4431 58.5951 20.6071ZM59.3819 19.4495C60.8752 19.4656 61.5978 17.3273 60.4738 16.4109C59.8957 15.9286 59.0447 16.3626 58.4988 16.025C56.8128 16.9254 57.2143 19.7871 59.3819 19.4495Z" fill="#252B31"/>
<path d="M28.3925 100.673C28.3925 100.85 28.3764 101.01 28.3603 101.187C28.2961 101.814 28.1355 102.393 27.8947 102.94C27.7984 103.165 27.686 103.39 27.5575 103.615C26.1606 106.01 23.2382 107.698 21.0063 109.113C17.4578 110.946 14.5515 113.776 12.7532 117.345C12.721 117.377 12.6889 117.425 12.6408 117.474C12.5123 117.634 12.3838 117.859 12.2554 118.133C11.87 118.953 11.5168 120.126 11.0993 120.914C10.7782 121.509 10.441 121.879 10.0235 121.718C10.0235 121.718 10.0074 121.718 10.0074 121.702C9.81476 121.605 9.70236 121.412 9.67025 121.155C9.65419 121.043 9.65419 120.93 9.67025 120.802C9.84687 118.47 13.7808 112.715 14.7442 111.927C18.5015 107.586 25.8715 106.589 27.8305 100.833C27.8786 100.673 27.9268 100.512 27.975 100.351C28.2158 100.174 28.3925 100.448 28.3925 100.673Z" fill="#252B31"/>
<path d="M37.9464 109.081C36.2283 113.76 32.4068 117.023 28.2802 119.58C25.3579 121.284 22.8851 123.728 20.8138 126.38C20.3321 126.991 20.0591 128.213 19.1439 128.213C16.7675 126.991 14.6962 125.207 12.5125 123.663C12.1271 123.342 10.698 122.473 10.0076 121.686C9.84703 121.493 9.71858 121.316 9.67041 121.139C9.62223 121.01 9.62223 120.898 9.67041 120.785C9.73463 120.625 9.87914 120.496 10.1521 120.399C10.4732 120.56 10.7944 120.737 11.1155 120.914C11.7096 121.252 12.2877 121.589 12.8657 121.959C13.1708 122.152 13.4759 122.345 13.7809 122.554C14.7765 123.229 15.7559 123.937 16.7193 124.66C16.9602 124.837 17.201 125.014 17.4258 125.191C18.052 125.657 18.6622 126.139 19.2884 126.605C19.7541 125.882 20.2518 125.174 20.7978 124.515C21.1028 124.146 21.424 123.776 21.7612 123.406C23.142 121.895 24.6995 120.544 26.3052 119.338C30.3997 116.814 34.5424 113.856 36.4531 109.322C36.5655 109.049 36.6779 108.759 36.7742 108.47C36.8545 108.358 36.9188 108.229 36.983 108.068C37.1757 107.554 37.2881 106.862 37.4647 106.3C37.6413 105.753 37.8982 105.303 38.396 105.238C38.4281 105.238 38.4602 105.222 38.5084 105.222C39.8571 105.721 38.1712 108.132 37.9464 109.081Z" fill="#252B31"/>
<path d="M38.4283 106.525C38.2356 106.702 37.9465 106.734 37.7218 106.573C37.6415 106.477 37.5451 106.38 37.4488 106.284C36.9671 105.786 36.4372 105.335 35.8913 104.933C35.6825 104.789 35.4738 104.644 35.2651 104.499C34.0929 103.744 32.7923 103.133 31.4917 102.554C31.1545 102.409 30.8173 102.265 30.4801 102.104C29.7576 101.798 29.0511 101.493 28.3607 101.155C28.2001 101.075 28.0395 101.011 27.895 100.93C27.8629 100.882 27.8308 100.834 27.8147 100.769C26.6105 98.1327 36.373 103.133 36.8868 103.776C37.3043 104.065 38.0108 104.612 38.3801 105.191C38.6691 105.657 38.7654 106.123 38.4283 106.525Z" fill="#252B31"/>
<path d="M28.152 103.759C27.6703 103.791 26.7229 103.164 27.5257 102.859C27.9272 102.971 28.3446 102.939 28.7461 102.843C29.4204 102.65 30.1109 102.409 30.6889 102.007C30.8334 101.733 31.1225 101.38 31.4757 101.573C32.5355 102.971 29.1314 103.904 28.152 103.759Z" fill="#252B31"/>
<path d="M36.3087 109.226C35.1526 107.939 34.2694 105.367 35.6503 104C36.0196 103.888 36.2765 104.45 35.9554 104.659C35.57 105.897 36.1963 107.232 37.0312 108.132C37.6253 108.582 36.9509 109.692 36.3087 109.226Z" fill="#252B31"/>
<path d="M13.2031 122.859C12.0952 122.473 13.8935 120.271 12.8177 119.017C12.8338 119.033 12.8338 119.049 12.8498 119.065C12.609 118.615 12.2878 118.197 12.0791 117.731C12.2076 116.3 13.9417 118.904 14.038 119.386C14.2789 120.239 14.3592 122.763 13.2031 122.859Z" fill="#252B31"/>
<path d="M16.6714 125.496C15.4351 124.548 19.5295 123.149 20.2681 123.197C20.9104 123.165 22.2913 123.181 22.1468 124.114C22.0826 124.403 21.8578 124.612 21.5687 124.628C19.8667 124.162 18.1968 124.805 16.6714 125.496Z" fill="#252B31"/>
<path d="M23.7686 116.686C20.5733 115.56 22.1629 110.126 25.6472 111.991C28.2645 112.747 26.3055 117.458 23.7686 116.686ZM24.4269 115.368C25.2618 115.351 26.0165 114.306 25.6793 113.519C25.4866 113.197 25.037 112.972 25.1655 112.522C22.7088 111.798 22.3395 115.11 24.4269 115.368Z" fill="#252B31"/>
<path d="M182.682 87.473C180.322 87.055 177.929 86.7495 175.617 86.0903C175.649 86.1064 175.681 86.1064 175.713 86.1225C174.316 85.5919 168.986 84.7559 168.632 83.5019C168.424 80.833 169.082 78.2124 169.917 75.7043C171.988 70.1898 177.624 66.8617 179.037 61.1703C179.069 61.0578 179.101 60.9453 179.117 60.8327C179.23 60.2861 179.326 59.7073 179.358 59.1124C179.374 58.8391 179.438 58.2603 179.583 57.8584C179.727 57.4565 179.968 57.2314 180.354 57.6976C180.386 57.9388 180.402 58.1799 180.418 58.405C180.45 59.032 180.418 59.6591 180.338 60.2861C180.289 60.688 180.225 61.0739 180.145 61.4758C180 62.1993 179.808 62.9228 179.615 63.6141C176.966 69.8039 172.309 72.1673 170.623 78.4696C170.543 78.759 170.479 79.0484 170.415 79.3539C170.19 80.3989 170.045 81.5565 170.013 82.8427C170.511 83.0035 170.993 83.1482 171.49 83.2929C171.86 83.4054 172.229 83.5179 172.598 83.6144C174.734 84.2253 176.902 84.7559 179.085 85.1739C179.342 85.2221 179.599 85.2704 179.84 85.3186C180 85.3508 180.161 85.3829 180.322 85.399C181.14 85.5758 181.992 85.608 182.81 85.7688C183.019 85.817 183.244 85.8652 183.453 85.9456C183.629 86.0582 183.726 86.2029 183.774 86.3636C183.934 86.9746 183.372 87.7141 182.682 87.473Z" fill="#252B31"/>
<path d="M191.754 69.3701C191.754 69.3861 191.754 69.3862 191.738 69.4022C191.722 69.4505 191.706 69.4826 191.69 69.5308C191.69 69.5469 191.674 69.563 191.674 69.563C190.213 73.084 187.242 75.7528 185.765 79.2577C184.946 81.2191 184.609 83.3092 184.015 85.3349C183.886 85.6243 183.886 86.0584 183.774 86.4121C183.678 86.7176 183.517 86.9587 183.116 86.9427C182.811 87.007 182.746 86.5568 182.811 85.8333C182.875 85.1742 183.051 84.306 183.276 83.3896C183.373 82.9716 183.501 82.5375 183.613 82.1034C184.111 80.3027 184.689 78.6146 184.866 78.3091C187.628 73.1804 191.738 68.8074 191.899 62.9713C191.915 62.6176 191.899 62.2639 191.883 61.9102C191.835 61.1384 191.722 60.3507 191.529 59.5146C190.743 59.3378 189.94 59.1931 189.137 59.0805C188.928 59.0484 188.703 59.0162 188.495 59.0001C186.825 58.7911 185.139 58.6947 183.469 58.6304C183.437 58.6304 183.421 58.6304 183.389 58.6304C183.212 58.5982 183.035 58.5821 182.843 58.5661C182.056 58.5339 181.173 58.6464 180.434 58.4535C180.145 58.3731 179.888 58.2445 179.663 58.0516C179.631 58.0034 179.615 57.9551 179.599 57.9069C179.246 56.4921 187.242 57.1512 188.125 57.2316C189.619 57.5853 191.642 57.4406 192.734 58.5821C193.89 62.1352 193.151 65.9617 191.754 69.3701Z" fill="#252B31"/>
<path d="M171.812 84.4986C170.64 84.1449 173.032 80.6722 169.949 79.0805C169.965 79.0966 169.965 79.0966 169.981 79.1126C169.451 78.3892 170.351 78.2123 170.88 78.6464C172.502 79.1609 173.578 84.177 171.812 84.4986Z" fill="#252B31"/>
<path d="M179.022 85.7205C178.957 83.8716 181.864 82.1996 183.55 82.087C184.77 81.8941 184.545 83.4858 183.453 83.3411C180.595 83.4536 179.487 86.444 179.022 85.7205Z" fill="#252B31"/>
<path d="M183.533 58.1316C183.533 58.2924 183.501 58.4371 183.469 58.5979C183.132 60.0449 181.622 61.2024 180.161 61.4918C179.856 61.5561 179.551 61.5722 179.246 61.5561C179.134 61.4114 179.085 61.2828 179.069 61.1703C179.037 61.0416 179.069 60.9291 179.15 60.8326C179.358 60.5593 179.888 60.4307 180.354 60.3021C180.579 60.2378 180.804 60.1735 180.932 60.0931C180.916 60.0931 180.884 60.1092 180.868 60.1252C181.639 59.8198 182.457 59.2892 182.827 58.5336C182.939 58.3085 183.019 58.0513 183.052 57.7779C183.276 57.3599 183.581 57.8262 183.533 58.1316Z" fill="#252B31"/>
<path d="M191.932 62.9383C186.938 62.5846 188.592 56.5717 189.266 58.3402C188.608 60.4946 190.631 61.6682 192.397 61.9898C192.734 62.3435 192.413 63.0187 191.932 62.9383Z" fill="#252B31"/>
<path d="M180.547 74.5152C176.661 73.8721 179.873 66.7498 183.02 69.6437C183.614 69.3383 183.806 70.319 183.967 70.7209C184.304 72.6985 182.731 75.0618 180.547 74.5152ZM181.607 73.438C182.827 73.3737 183.742 71.6695 183.052 70.6405C182.907 70.6566 182.779 70.528 182.779 70.3833C182.281 69.7402 181.013 69.7884 180.467 70.3672C179.471 71.6534 179.535 73.6631 181.607 73.438Z" fill="#252B31"/>
<path d="M185.396 148.117C185.299 148.117 185.187 148.101 185.042 148.053C182.81 144.451 181.285 140.352 178.86 136.815C176.34 132.393 172.679 128.294 171.683 123.197C171.683 123.052 171.731 122.876 171.828 122.779C171.86 122.763 171.876 122.731 171.908 122.715C171.972 122.683 172.036 122.651 172.101 122.651C172.341 122.634 172.518 122.94 172.647 123.31C172.839 123.808 172.968 124.435 173.144 124.692C173.241 124.917 173.353 125.159 173.465 125.384C173.594 125.673 173.738 125.962 173.883 126.252C176.275 130.93 179.679 135.046 182.056 139.757C182.104 139.837 182.136 139.902 182.168 139.982C182.184 139.998 182.2 140.03 182.2 140.046C182.2 140.062 182.216 140.062 182.216 140.078C182.216 140.095 182.232 140.111 182.232 140.127C182.264 140.207 182.313 140.271 182.345 140.352C183.067 141.654 183.694 143.005 184.304 144.371C184.384 144.548 184.464 144.725 184.545 144.902C184.834 145.529 185.123 146.172 185.428 146.799C185.54 146.911 185.636 147.088 185.685 147.265C185.861 147.651 185.781 148.101 185.396 148.117Z" fill="#252B31"/>
<path d="M197.84 142.57C197.711 142.699 197.471 142.699 197.133 142.522V142.506C196.876 141.654 196.587 140.818 196.266 139.982C196.138 139.66 196.025 139.355 195.881 139.033C194.596 135.93 192.894 133.004 190.952 130.239C188.752 127.683 186.777 124.966 185.155 122.039C184.946 121.686 184.754 121.316 184.561 120.946C184.143 120.142 183.758 119.322 183.389 118.502C182.763 119.001 182.04 119.371 181.301 119.692C181.028 119.805 180.771 119.917 180.499 120.03C179.728 120.335 178.957 120.625 178.251 121.027C177.929 121.123 176.95 121.638 175.858 122.152C175.617 122.265 175.376 122.377 175.136 122.49C174.22 122.892 173.321 123.245 172.679 123.326C172.133 123.39 171.796 123.261 171.844 122.795C171.876 122.779 171.892 122.747 171.924 122.731C172.39 122.345 172.968 122.072 173.562 121.83C174.188 121.573 174.847 121.332 175.409 120.994C175.392 121.011 175.36 121.027 175.344 121.027C177.994 119.531 180.9 118.47 183.501 116.975C184.754 117.313 185.508 120.158 186.327 121.252V121.236C188.864 125.962 192.766 129.741 195.142 134.58C195.56 135.175 198.739 141.734 197.84 142.57Z" fill="#252B31"/>
<path d="M197.727 143.503C193.874 145.497 189.603 146.847 185.492 148.165C185.46 148.149 185.428 148.133 185.412 148.117C185.283 148.037 185.219 147.956 185.219 147.86C185.219 147.683 185.412 147.474 185.749 147.233C186.183 146.927 186.873 146.574 187.66 146.236C187.933 146.124 188.206 145.995 188.495 145.882C190.679 144.982 193.216 144.13 193.585 143.889C193.729 143.841 193.858 143.792 194.002 143.744C194.211 143.68 194.42 143.599 194.629 143.535C195.48 143.23 196.331 142.924 197.133 142.49C197.23 142.442 197.326 142.394 197.406 142.329C197.599 142.329 197.76 142.41 197.856 142.554C198.033 142.844 198 143.294 197.727 143.503Z" fill="#252B31"/>
<path d="M188.174 146.895C187.901 146.831 187.789 146.509 187.676 146.284C187.098 145.111 185.621 144.966 184.465 144.869C184.32 145.014 184.063 144.918 184.063 144.709C184.32 143.889 185.749 144.435 186.392 144.419C187.259 144.323 189.748 146.606 188.174 146.895Z" fill="#252B31"/>
<path d="M194.195 144.082C192.445 141.75 197.31 136.734 196.668 139.66C195.432 140.512 194.356 141.911 194.548 143.519C195.191 143.599 194.629 144.484 194.195 144.082Z" fill="#252B31"/>
<path d="M184.882 135.191C182.586 135.142 182.201 130.962 184.32 130.319C184.416 129.869 184.93 129.917 185.283 129.853C185.267 129.853 185.267 129.853 185.251 129.853C188.864 129.757 188.399 135.351 184.882 135.191ZM185.123 134.114C186.68 134.017 187.724 131.975 186.215 131.027C185.669 130.448 184.834 131.429 184.384 130.786C183.132 131.461 183.485 134.371 185.123 134.114Z" fill="#252B31"/>
<path d="M173.53 126.348C172.374 125.754 174.349 124.998 174.51 124.307C175.12 123.535 175.023 122.522 175.312 121.654C176.629 121.043 175.184 125.287 174.606 125.593C174.333 125.914 174.012 126.364 173.53 126.348Z" fill="#252B31"/>
<path d="M183.678 122.088C182.73 122.136 179.407 119.869 180.434 118.953C180.643 118.905 180.787 119.114 180.9 119.258C181.414 119.918 182.136 120.384 182.891 120.721C182.875 120.705 182.843 120.705 182.827 120.689C183.517 121.011 184.256 120.946 184.994 120.93C185.267 120.946 185.444 121.252 185.46 121.493C185.46 122.393 184.272 122.12 183.678 122.088Z" fill="#252B31"/>
<path d="M159.77 59.804C159.625 58.7108 158.662 58.2606 157.634 57.923C157.136 57.7461 156.622 57.6014 156.189 57.4246C156.076 57.3763 155.98 57.3281 155.884 57.2799C154.214 56.685 152.544 56.0258 150.922 55.3023C148.048 53.8393 144.853 53.4213 141.77 52.6174C141.657 52.5853 141.545 52.5531 141.433 52.537C141.336 52.2798 141.079 52.1994 140.839 52.2476C140.517 52.2959 140.196 52.537 140.212 52.8747C136.712 61.878 133.517 71.0743 128.764 79.531C125.729 84.8526 123.321 90.6083 119.515 95.4315C118.937 96.2193 118.343 96.9911 117.733 97.7467C112.643 103.888 106.011 108.47 99.2355 112.683C99.0428 112.49 98.6896 112.538 98.24 112.731C96.5058 113.47 93.3266 116.461 92.3471 116.991C88.0921 120.191 84.2866 123.937 80.5615 127.715C80.8344 122.731 80.7702 117.731 80.8023 112.731C80.8665 109.966 81.1395 108.888 80.8986 108.133C80.6257 107.313 79.7265 106.879 77.2538 105.062C76.6115 104.033 75.8247 103.1 74.9737 102.2C73.4804 100.608 71.7944 99.1294 70.3493 97.5216C67.2343 94.2097 64.3602 90.6887 61.4699 87.1838C57.8572 82.6661 54.7743 77.7946 51.9964 72.7303C51.9804 72.6981 51.9483 72.6499 51.9322 72.6177C49.1223 67.7141 47.0188 62.4246 44.0002 57.6657C43.9841 57.6336 43.968 57.6175 43.952 57.5853C43.968 57.6014 43.9841 57.6175 43.9841 57.6336L44.0002 57.6496C44.0002 57.6336 43.9841 57.6336 43.9841 57.6175C43.5827 56.8619 42.6353 57.2959 42.8922 58.1159C42.828 58.148 42.7638 58.1641 42.6996 58.1802C38.7014 59.7236 34.7996 61.46 31.0423 63.5179C30.7854 63.6626 30.5125 63.8073 30.2556 63.952C29.533 64.3539 28.8265 64.7719 28.12 65.206C26.8355 65.8813 28.0076 67.6498 28.3287 68.6305C29.0513 70.3508 29.5169 72.1675 30.2556 73.8557C30.9139 75.0293 32.2948 74.7399 33.3224 75.1419C35.1689 80.0616 37.738 84.6918 40.3874 89.2257C42.1697 92.9235 44.7388 96.1229 47.1152 99.4348C52.7832 107.425 58.2104 115.577 62.4012 124.467C60.2978 129.918 62.8669 135.448 64.9382 140.48C64.9543 140.529 64.9703 140.577 64.9864 140.625C65.1951 141.124 65.3717 141.638 65.5644 142.153C63.3968 151.638 62.0319 161.301 59.7037 170.754C59.6876 170.819 59.6716 170.883 59.6555 170.947C59.495 171.558 59.3023 172.169 59.0935 172.764C58.8687 173.375 58.6118 173.97 58.3389 174.565C57.7769 175.786 57.1185 176.96 56.4121 178.118C55.9625 179.066 55.2881 179.902 54.6779 180.754C54.6137 180.835 54.5495 180.931 54.4852 181.012C54.2283 181.381 53.9714 181.767 53.7466 182.153C53.6985 182.233 53.6503 182.33 53.6021 182.426C53.5379 182.571 53.4737 182.716 53.4094 182.861C53.3934 182.909 53.3773 182.957 53.3613 183.005C53.3291 183.375 53.4255 183.648 53.5861 183.841C53.8269 184.115 54.2123 184.195 54.5655 184.082C54.8706 183.986 55.1436 183.745 55.3041 183.359C55.5129 183.986 55.7537 184.597 56.0106 185.208C56.107 185.433 56.2033 185.658 56.2997 185.867C57.3112 188.086 58.5476 190.176 59.6876 192.33C59.7358 192.427 59.784 192.507 59.8482 192.603C59.511 193.488 58.4673 194.34 58.8366 195.337C59.8 196.735 60.8116 194.774 61.2291 193.922C62.2888 194.131 63.0274 192.668 62.3852 191.864C64.3923 188.327 66.1585 184.677 67.7481 180.947C68.4225 179.372 69.0648 177.764 69.675 176.156C71.7945 171.188 74.2993 166.381 76.1619 161.317C75.1824 166.172 74.3314 171.028 73.1753 175.851C72.7418 177.748 72.4367 179.645 72.2119 181.574C71.8908 184.259 71.7142 186.96 71.4733 189.645C71.5375 191.06 70.0443 198.279 71.6018 198.423C72.7739 198.536 72.7579 197.137 72.7257 196.317C84.6559 194.71 96.4095 190.947 106.718 184.629C106.686 184.645 106.638 184.677 106.606 184.693C107.521 183.857 109.48 184.195 109.271 182.619C109.271 182.571 109.271 182.507 109.271 182.459C109.078 176.285 108.934 170.111 109.191 163.937V163.921C109.223 162.523 109.271 161.108 109.335 159.709C109.705 150.85 110.459 141.992 111.471 133.197C113.815 129.982 117.042 127.619 120.013 125.014C124.22 121.332 128.443 117.634 132.248 113.535C132.537 113.213 132.842 112.892 133.131 112.586C143.954 100.448 149.686 84.6597 154.583 69.4022C155.884 69.2093 158.051 69.6916 158.244 67.8749C158.758 65.19 159.93 62.5693 159.77 59.804ZM107.569 164.404C107.569 164.548 107.569 164.677 107.569 164.822C107.569 164.677 107.569 164.532 107.569 164.404ZM66.6563 139.162C66.6402 139.13 66.6242 139.082 66.6081 139.05L66.6563 139.162Z" fill="#8ABBF8"/>
<path d="M82.7291 83.3575C81.7978 82.3607 83.1305 80.4475 84.3669 81.0745C85.8762 81.8784 83.9655 84.4829 82.7291 83.3575Z" fill="#252B31"/>
<path d="M92.3148 91.0101C90.693 89.933 90.388 86.4763 93.0534 87.1837C96.2326 88.3252 95.3335 93.47 92.3148 91.0101Z" fill="#252B31"/>
<path d="M81.8777 95.7208C77.3979 95.158 79.1962 88.6949 81.5245 86.6531C81.9259 86.1065 83.0499 87.3444 83.5316 87.5374C84.5592 88.1162 85.5547 88.7432 86.6305 89.2094C86.6305 89.2094 86.6145 89.2094 86.6145 89.1933C86.6305 89.1933 86.6466 89.2094 86.6626 89.2094H86.6466C86.6626 89.2255 86.6948 89.2255 86.7108 89.2416H86.6948C87.3531 89.8043 89.6171 90.0294 88.9266 91.2191C87.1765 93.3895 84.8161 95.6082 81.8777 95.7208ZM82.2149 94.531C83.4192 94.4024 84.5592 93.8236 85.5547 93.1645C85.5387 93.1805 85.5066 93.1966 85.4905 93.2127C86.197 92.6982 86.8393 92.1033 87.4494 91.4763C87.4334 91.4924 87.4173 91.5085 87.4013 91.5246C87.4173 91.5085 87.4334 91.4924 87.4655 91.4603L87.4494 91.4763C87.4815 91.4442 87.4976 91.4281 87.5297 91.3959L87.5137 91.412C87.6421 91.2834 87.7706 91.1548 87.899 91.0262C87.1925 90.7689 86.5502 90.3831 85.8759 90.0937C85.8919 90.1098 85.924 90.1098 85.9401 90.1258C84.511 89.3863 83.1462 88.502 82.0062 87.3766C81.6529 88.1483 81.0909 88.8236 80.7698 89.6114C80.7698 89.5953 80.7859 89.5792 80.7859 89.5631C80.7698 89.5953 80.7698 89.6114 80.7537 89.6435C80.7537 89.6435 80.7537 89.6274 80.7698 89.6274C79.9188 91.2834 79.5816 94.5793 82.2149 94.531Z" fill="#252B31"/>
<path d="M86.4378 86.203C85.1532 86.1226 82.7286 85.1579 83.4673 83.518C84.6233 82.5373 86.3735 82.8267 87.7865 82.4569C87.8347 82.4409 87.8829 82.4409 87.931 82.4248C87.8989 82.4248 87.8829 82.4409 87.8508 82.4409C89.0229 82.1997 90.0024 81.5566 90.8534 80.7527C91.1585 80.3508 91.5599 80.9939 91.1424 81.1868C89.7294 83.5341 86.9034 83.9039 84.4467 84.2576C85.0408 84.8846 85.9561 85.0615 86.791 85.1579C86.775 85.1579 86.7428 85.1579 86.7268 85.1579C86.775 85.1579 86.8392 85.174 86.8874 85.174C86.8713 85.174 86.8392 85.174 86.8231 85.174C87.2727 85.3187 88.0916 84.9168 88.2361 85.5277C88.2682 86.3959 87.0158 86.219 86.4378 86.203Z" fill="#252B31"/>
<path d="M99.6528 88.9366C99.1229 85.9301 97.9989 84.0169 94.6109 84.9494C93.9526 85.2709 93.4709 84.4349 93.9205 83.9365C94.4985 83.4542 95.3977 83.5507 96.1042 83.422C96.0881 83.422 96.056 83.422 96.04 83.422C98.031 83.213 99.8615 84.6118 100.199 86.5732C100.199 86.5571 100.199 86.5571 100.183 86.541C100.199 86.5893 100.199 86.6375 100.215 86.6857C100.215 86.6697 100.215 86.6697 100.199 86.6536C100.375 87.2002 100.857 89.6922 99.6528 88.9366Z" fill="#252B31"/>
<path d="M98.4485 84.6115C98.2558 84.5632 97.9507 84.5472 97.8704 84.3221C97.7901 84.2739 97.8383 84.097 97.9507 84.1131C98.8017 84.0488 99.6527 83.8398 100.504 83.8076C101.66 84.6115 98.882 84.7079 98.4485 84.6115Z" fill="#252B31"/>
<path d="M99.2991 85.9455C99.1867 85.9455 99.0903 85.8812 99.0582 85.7847C98.9298 85.5114 99.2188 85.1255 99.5078 85.3024C100.118 85.2541 100.728 84.7557 101.338 84.9326C101.579 85.0934 101.531 85.4631 101.274 85.5918C100.632 85.7847 99.9574 85.8812 99.2991 85.9455Z" fill="#252B31"/>
<path d="M99.6203 86.9098C99.3634 86.2184 100.391 86.4274 100.76 86.1863C101.065 86.0577 101.676 85.8648 101.724 86.3631C101.74 86.5561 101.595 86.7651 101.403 86.7972C100.841 86.7811 100.118 87.2474 99.6203 86.9098Z" fill="#252B31"/>
<path d="M161.696 157.394C161.568 157.876 161.407 158.359 161.23 158.825C160.283 161.317 158.661 163.584 156.542 165.224C156.542 165.224 156.542 165.224 156.526 165.224C151.404 169.324 144.547 166.848 138.59 167.33C132.97 167.523 127.993 171.028 122.277 170.465C115.549 170.208 112.032 165.176 109.335 159.661C109.254 159.516 109.19 159.356 109.11 159.195C108.741 159.179 108.532 158.793 108.564 158.455C108.58 157.346 108.484 156.22 108.516 155.095C108.516 155.127 108.516 155.175 108.516 155.208C108.757 150.047 108.757 144.854 109.447 139.741V139.725C109.913 137.201 110.105 134.339 111.502 132.136C112.498 130.786 113.67 129.516 114.874 128.326C114.874 128.326 114.874 128.326 114.874 128.31C119.884 123.085 125.151 118.117 130.69 113.455C130.883 113.085 131.525 113.213 132.216 113.471C132.97 113.744 133.805 114.146 134.223 114.162C139.923 115.577 144.82 119.918 146.041 125.786C146.041 125.802 146.057 125.834 146.057 125.85C146.683 128.551 147.261 131.284 148.24 133.889C150.649 141.22 160.106 141.365 161.68 150.191V150.207C162.37 152.619 162.322 155.079 161.696 157.394Z" fill="#252B31"/>
<path d="M112.787 103.277C108.709 106.959 104.534 110.737 99.7008 113.39C99.7008 114.258 98.3841 114.596 98.2236 113.631C98.2236 113.326 98.2236 113.02 98.2236 112.715C98.352 108.952 99.6687 105.351 100.616 101.734C100.969 100.222 102.655 101.123 103.715 100.785C106.798 99.9009 104.438 97.1195 102.687 96.2031C102.703 96.2192 102.719 96.2191 102.719 96.2352C102.222 95.9137 101.13 95.5117 101.708 94.8043C101.852 94.322 101.997 93.8397 102.141 93.3413C103.008 90.3187 103.683 87.1676 103.378 84.0003C102.992 83.4537 103.137 82.682 102.88 82.071C102.125 80.5758 100.793 79.1449 99.0746 78.8877C98.8658 78.8073 98.8658 78.5018 99.0264 78.3732C99.9095 77.8587 101.034 78.4054 101.772 78.9359C99.9256 75.8169 96.7463 73.6625 95.4457 70.2059C93.9203 71.2349 92.2344 71.9905 90.6127 72.8426C91.5439 72.9391 93.2941 74.997 91.8972 75.4793C90.9177 75.0452 91.3834 73.7751 89.4084 73.6465C88.8946 73.9841 88.445 74.386 88.0275 74.8201C88.0436 74.804 88.0436 74.804 88.0596 74.788C87.305 75.5275 86.5663 76.2832 85.9562 77.1353C86.3094 77.087 86.6948 77.1031 87.048 77.2317C87.2889 76.8459 87.6261 75.5597 88.1399 75.6722C88.7019 76.1545 87.5619 76.8137 87.3371 77.2639C87.4013 77.3121 87.4976 77.3764 87.4976 77.4568C87.7064 77.6176 87.8991 77.7944 88.0436 78.0195C88.3486 77.6658 88.3968 77.0227 88.8625 76.8459C89.569 76.9423 88.9106 77.698 88.6698 77.9874C88.6537 78.0034 88.6537 78.0195 88.6377 78.0195C88.5253 78.1642 88.4129 78.3089 88.2844 78.4375C88.4289 78.6948 88.5413 78.952 88.6056 79.2414C88.8464 78.9359 89.0551 78.5983 89.296 78.3089C89.4405 78.1642 89.6653 78.116 89.8259 78.2768C90.147 78.6948 89.6171 79.0485 89.3602 79.3218C89.1515 79.5308 88.9427 79.7559 88.734 79.9649C88.6858 80.5437 88.9106 81.653 88.156 81.7816C87.9472 81.7816 87.7867 81.6048 87.7546 81.4118C87.7867 79.4665 87.321 77.4568 84.9286 78.4536C84.2863 79.2414 83.4674 80.3668 82.6324 81.7173C82.52 81.9102 82.4076 82.0871 82.2792 82.2961C79.4693 86.9425 76.4827 93.6307 77.7512 96.8944C79.9831 100.801 82.6164 97.7465 81.4924 104.001C81.2676 104.74 81.3479 107.007 80.9144 108.1C80.7699 108.454 80.5611 108.695 80.2882 108.711C78.8752 108.084 77.5746 107.087 76.5309 105.914C75.9207 105.303 75.1179 104.804 75.3106 103.84C74.9734 103.615 75.0858 103.213 75.0858 102.891C75.0536 102.65 75.0215 102.409 74.9894 102.168C74.2508 95.8654 76.1455 89.6113 78.265 83.727C80.7859 77.4568 84.9286 71.5082 91.2228 68.6303C93.2781 67.5531 95.3655 67.0708 97.3886 67.0708C102.318 67.0708 106.975 69.9004 110.443 73.8555C114.039 77.5211 115.661 82.5533 116.031 87.5856C116.031 87.6499 116.047 87.6981 116.047 87.7624C116.047 87.7785 116.047 87.7946 116.047 87.8107C116.047 87.875 116.063 87.9393 116.063 88.0036C116.239 91.2995 117.058 94.5471 117.733 97.7304C117.749 97.8108 117.765 97.8912 117.781 97.9716C118.519 99.3542 113.702 102.087 112.787 103.277Z" fill="#252B31"/>
<path d="M162.403 8.19565C162.274 8.74229 162.178 9.30499 162.146 9.85163C162.114 10.1089 161.937 10.35 161.712 10.4304C161.616 10.4626 161.52 10.4626 161.407 10.4465C159.93 9.85163 161.905 6.3146 161.857 5.02841C160.412 6.39498 159.93 8.42074 158.886 10.0124C156.349 10.4786 159.512 4.70686 159.464 3.59752C158.79 4.14415 158.276 4.8194 157.826 5.55896C157.81 5.57504 157.81 5.57504 157.81 5.59111C157.152 6.20206 155.402 11.5719 154.695 8.85483C154.92 6.74869 156.413 4.9641 156.719 2.89011C156.51 3.08304 156.301 3.29205 156.108 3.50105C156.076 3.54928 156.028 3.58144 155.996 3.62967C152.014 8.37251 150.633 14.6266 149.124 20.4949C147.582 26.0255 146.555 31.6687 145.415 37.2797C145.415 37.2797 145.415 37.2797 145.415 37.2958C145.415 37.3118 145.415 37.3279 145.399 37.344C145.382 37.4405 145.366 37.5369 145.35 37.6334V37.6495C145.334 37.7138 145.334 37.762 145.318 37.8263C145.318 37.7942 145.334 37.762 145.334 37.7298C145.302 37.8906 145.27 38.0353 145.254 38.1961C144.756 39.6752 143.167 49.7557 141.802 52.6014C141.529 53.1642 141.272 53.4535 141.031 53.3249C140.678 53.1963 140.726 52.7461 140.871 52.2156C141.047 51.6046 141.368 50.8812 141.352 50.4953C142.3 46.3152 143.102 42.1029 143.986 37.9067C143.986 37.8906 143.986 37.8745 143.986 37.8745C144.355 35.7523 144.82 33.6623 145.206 31.54C146.651 23.9515 148.337 16.3469 150.986 9.07991C151.998 6.65222 153.266 4.27277 155.065 2.3274C156.815 0.140875 158.533 0.84828 157.81 3.66183C159.464 1.25022 161.15 2.56856 160.283 5.07664C160.877 4.09592 162.499 2.42387 162.997 4.41746C163.077 5.70366 162.692 6.94162 162.403 8.19565Z" fill="#252B31"/>
<path d="M156.172 57.7944C156.172 57.8104 156.172 57.8263 156.172 57.8263C156.172 57.8422 156.172 57.8581 156.172 57.874C156.156 57.8422 156.172 57.8104 156.172 57.7944Z" fill="#252B31"/>
<path d="M164.169 12.4561C164.169 12.4561 164.169 12.4722 164.169 12.4561C161.327 22.408 160.154 32.7779 158.966 43.0192C158.79 46.701 158.26 50.3505 158.115 54.0323C157.874 54.5789 157.939 56.6689 157.65 57.9069C157.457 58.7269 157.088 59.1609 156.381 58.5018C156.221 58.2928 156.172 58.0677 156.188 57.8104C156.188 57.6818 156.205 57.5371 156.221 57.4085C156.847 47.9068 157.634 38.405 159.095 28.9837C160.235 22.0061 161.359 14.9642 164.217 8.4528C163.591 8.79043 162.338 11.0734 161.744 10.4303C161.648 10.3178 161.568 10.1249 161.503 9.83546C161.648 9.41745 162.001 8.79043 162.451 8.19556C163.398 6.94153 164.795 5.76788 165.839 6.61998C166.497 7.48816 164.426 11.186 164.169 12.4561Z" fill="#252B31"/>
<path d="M39.2635 3.59724C39.135 4.22426 38.9102 4.86735 38.6372 5.46222C38.4446 6.02493 38.4927 7.0378 37.9307 7.27896C37.8023 7.3272 37.6578 7.34327 37.4812 7.31112C35.9076 6.47509 38.4124 3.46862 38.284 2.05381C36.9834 3.11492 36.1645 4.65835 35.4259 6.13747C35.3456 6.34647 35.1369 6.52333 34.9281 6.57156C32.8729 6.50725 35.2814 2.93806 34.9121 1.7001C33.5794 3.99917 33.0976 6.73233 32.5838 9.32079C31.8452 12.6327 30.93 15.8965 30.368 19.2406C28.6178 26.7326 28.393 34.4498 28.4251 42.1187C28.7463 49.3053 29.1958 56.5401 31.0263 63.5016C31.0424 63.566 31.0584 63.6463 31.0745 63.7106C31.1227 64.1126 30.6088 64.3859 30.3198 64.0965C30.2877 64.0483 30.2717 64 30.2395 63.9357C28.4893 60.5273 28.104 56.4597 27.5902 52.6976C26.9318 46.4917 26.6428 40.2859 26.8516 34.0478C26.8516 33.8871 26.8676 33.7424 26.8676 33.5816C27.0764 25.366 28.8105 17.2952 30.8979 9.36903C31.5241 6.5394 32.07 3.61332 33.5151 1.07309C34.7194 -0.93659 36.4856 0.124519 36.1966 2.21458C39.0868 -1.20991 39.8094 1.05701 39.2635 3.59724Z" fill="#252B31"/>
<path d="M41.7842 15.2692C40.5799 20.2693 39.9216 25.398 39.7771 30.5589C39.8092 38.2117 41.3667 45.752 42.9242 53.2119C43.2775 54.675 43.5665 56.1541 43.984 57.6171C43.984 57.6171 43.984 57.6171 43.984 57.6332C43.984 57.6493 43.984 57.6493 43.984 57.6654C44.2248 58.4532 43.133 59.1445 42.7155 58.2763C42.6994 58.2442 42.6994 58.212 42.6834 58.1959C37.77 41.2182 34.7192 21.5877 44.1285 5.63888C42.8921 6.05689 41.3988 8.69359 40.4675 8.4042C39.0706 7.2627 41.72 4.80286 41.5112 3.21119C40.0501 4.19191 39.4078 5.99258 38.2517 7.27878C38.1233 7.32701 38.0269 7.34309 37.9306 7.31093C37.5452 7.21447 37.6255 6.44275 37.8503 6.1212C38.348 5.34949 38.7655 4.44915 39.2472 3.62921C39.7129 2.84141 40.2749 2.13401 41.0777 1.66776C43.1651 0.68704 43.1008 3.74175 42.571 4.97971C44.9313 2.9218 46.1195 4.48131 45.1079 7.05369C43.7913 9.69039 42.6031 12.3914 41.7842 15.2692Z" fill="#252B31"/>
<path d="M121.955 182.667C121.811 183.23 121.57 183.841 121.265 184.468C120.093 186.864 118.038 189.516 117.524 190.754C115.244 194.05 113.542 197.668 111.551 201.124C111.47 201.237 111.406 201.365 111.342 201.478C111.037 202.008 110.844 202.491 110.635 202.925C110.09 204.066 109.592 204.726 107.424 204.484C92.1862 203.809 76.7075 205.224 61.6301 202.475C58.7078 201.687 55.4162 201.639 52.7668 200.063C52.7026 200.031 52.6544 199.999 52.6062 199.967C51.9961 199.42 51.4341 198.825 50.9363 198.182C48.1746 194.693 46.9542 190.047 45.8463 185.802C45.6215 184.902 45.3807 183.584 45.3486 182.233C45.3325 181.687 45.3486 181.156 45.4128 180.642C45.6055 179.018 46.2638 177.635 47.8053 177.378C49.9247 178.262 52.269 179.114 54.0674 180.609C54.2119 180.722 54.3404 180.851 54.4849 180.963C54.6133 181.076 54.7257 181.204 54.8542 181.317C55.0469 181.317 55.2074 181.349 55.368 181.429C56.2832 181.896 56.4277 183.809 56.9737 184.629C58.1619 187.346 59.5909 190.015 61.4856 192.298C63.4285 188.745 65.2269 185.127 67.1055 181.542C67.25 181.253 67.4748 181.044 67.7317 180.915C68.0529 180.754 68.4222 180.722 68.8075 180.802C69.6906 180.947 70.7986 180.674 71.5372 181.204C71.8904 181.156 72.0992 181.301 72.2116 181.526C72.3561 181.831 72.34 182.282 72.2597 182.619C72.1473 183.921 72.1795 185.24 71.8904 186.526C71.5854 189.05 71.8101 191.606 71.8262 194.147C77.1249 194.291 82.3916 193.487 87.5297 192.169C87.9633 192.057 88.3968 191.944 88.8303 191.831H88.8143C88.8464 191.831 88.8624 191.815 88.8946 191.815H88.9106C95.1085 190.111 100.873 187.089 106.621 184.291C107.938 183.536 108.339 182.78 109.271 182.41C109.704 182.233 110.266 182.153 111.101 182.201C114.2 181.992 116.882 180.127 119.916 179.773C121.939 179.999 122.341 181.156 121.955 182.667Z" fill="#252B31"/>
<path d="M55.3524 181.461C55.3364 181.992 54.7904 182.506 54.2445 182.362C54.0839 182.297 53.9073 182.217 53.7468 182.137C51.7236 181.236 49.7486 180.159 48.1269 178.616C47.8539 178.776 47.6131 178.423 47.8379 178.198C48.3677 177.346 50.7762 179.757 51.9163 179.838C52.6228 180.095 53.3132 180.448 54.0518 180.625C54.2285 180.674 54.4051 180.706 54.5817 180.722C54.6138 180.722 54.6299 180.722 54.662 180.722C54.9028 180.738 55.1437 180.866 55.2561 181.076C55.3364 181.204 55.3685 181.333 55.3524 181.461Z" fill="#252B31"/>
<path d="M90.6449 214.678C89.4246 216.928 87.5941 226.912 84.3506 225.626C82.9537 224.469 83.596 221.993 83.5157 220.353C70.59 218.954 57.6482 217.491 44.7707 215.658C33.4025 213.922 21.8095 212.362 11.0996 207.925C-1.72978 202.812 -4.7324 192.169 9.0122 185.529C18.7587 181.156 29.8539 179.95 40.4514 180.401C40.4193 180.401 40.3711 180.401 40.339 180.401C40.5477 180.401 40.7404 180.417 40.9491 180.417C41.3827 180.449 43.5503 180.449 45.4129 180.642C47.5164 180.867 49.2184 181.349 47.4843 182.426C46.7778 182.346 46.0552 182.282 45.3487 182.233C42.9402 182.073 40.5156 182.105 38.1071 182.04C37.8341 182.04 37.5612 182.024 37.2882 182.024C37.2561 182.024 37.24 182.024 37.2079 182.024C37.1597 182.024 37.0955 182.024 37.0473 182.024C28.3767 181.976 19.5615 183.246 11.3886 186.188C0.85536 190.529 -2.7253 197.989 8.56261 204.565C20.1235 210.24 33.1295 211.768 45.702 213.761C54.1639 215.063 62.674 215.932 71.168 216.977C71.6176 217.025 72.0672 217.089 72.5007 217.137C73.9458 217.314 75.3909 217.491 76.82 217.684C87.3693 219.388 84.1098 216.687 85.1213 224.485C86.422 223.504 86.5665 221.543 86.9839 220.064C87.6423 217.99 88.3327 215.932 89.0071 213.874C88.991 213.922 88.975 213.954 88.975 214.002C90.1792 210.514 90.3559 210.208 86.5825 209.276C82.9376 208.488 79.2446 207.877 75.5515 207.411C75.5355 207.411 75.5355 207.411 75.5194 207.411C75.1661 207.362 74.7968 207.33 74.4436 207.282C67.0896 206.35 59.7837 205.063 52.5261 203.568C46.9062 202.218 41.2382 201.06 35.5862 199.806C31.3793 198.665 26.6747 198.07 23.0137 195.674C22.5962 194.42 24.1538 194.211 25.0369 194.517C26.482 194.709 27.9432 194.645 29.3883 194.822C36.0358 195.336 42.5548 196.655 49.0899 197.877H49.106C49.2023 197.893 49.2826 197.909 49.379 197.925C49.4111 197.925 49.4432 197.941 49.4753 197.941C49.5235 197.941 49.5716 197.957 49.6359 197.973C49.7161 197.989 49.7964 198.005 49.8767 198.021C50.23 198.086 50.5832 198.134 50.9525 198.198C54.7419 198.825 58.5474 199.372 62.3689 199.597C64.665 202.298 56.5403 200.755 52.799 200.079C51.948 199.935 51.3218 199.822 51.097 199.822C51.0489 199.806 51.0007 199.806 50.9525 199.79C43.454 198.375 36.0197 196.655 28.3927 196.044C43.1971 199.79 58.1941 203.086 73.3196 205.256C77.9921 205.803 82.6647 206.478 87.2569 207.491C92.2345 208.552 92.3469 210.224 90.6449 214.678Z" fill="#252B31"/>
<path d="M167.412 201.719C167.412 201.831 167.396 201.96 167.38 202.073C166.16 217.78 149.798 226.092 136.326 230.079C125.504 233.44 114.296 235.224 103.153 237.121C94.8677 238.52 86.5824 239.887 78.2329 240.771C75.712 241.125 73.2071 241.51 70.6862 241.88C69.9476 241.896 69.1447 242.234 68.4061 242.234C68.1492 242.234 67.9084 242.202 67.6675 242.121C67.0734 241.527 67.4588 240.883 68.0529 240.578C68.2937 240.449 68.5667 240.385 68.8236 240.385C70.5738 240.031 72.34 239.758 74.1063 239.469C75.9368 239.147 77.7833 238.89 79.6298 238.649C80.0794 238.584 80.529 238.536 80.9786 238.472C83.8206 238.118 86.6787 237.797 89.5047 237.346C106.83 234.388 124.46 232.298 141.143 226.51C146.892 224.34 152.576 221.655 157.232 217.571L157.12 217.668C164.602 211.687 169.644 198.873 161.134 191.638C156.654 187.153 150.135 186.349 144.162 185.32C136.583 184.018 128.908 184.018 121.249 184.452C120.237 184.516 119.226 184.564 118.23 184.645C117.957 184.982 117.588 184.725 117.235 184.773C115.469 183.616 118.15 182.989 121.955 182.651C127.318 182.185 134.961 182.313 135.684 182.362C143.086 183.005 150.713 183.793 157.65 186.59C162.852 189.339 167.22 194.388 167.428 200.417C167.444 200.851 167.444 201.285 167.412 201.719Z" fill="#252B31"/>
<path d="M138.478 208.423C138.446 208.44 138.43 208.456 138.398 208.472C138.333 208.52 138.253 208.568 138.189 208.616C138.173 208.632 138.157 208.632 138.141 208.649C127.206 215.819 114.393 219.195 102.254 223.761C95.1728 226.028 88.0275 228.134 80.8501 230.128C80.4808 230.24 80.0955 230.337 79.7262 230.449C75.1179 231.72 70.4935 232.941 65.8692 234.147C64.97 236.318 64.9379 238.681 64.6488 240.98C64.3919 243.311 64.0708 245.723 64.3919 248.07C64.4722 247.942 64.5364 247.813 64.6007 247.668C64.6007 247.652 64.6167 247.652 64.6167 247.636C65.4677 245.852 66.11 243.987 66.8326 242.17C67.0252 241.543 67.25 240.514 68.0368 240.578C68.085 240.578 68.1492 240.594 68.1974 240.61C68.7273 240.803 68.663 241.462 68.3901 242.25C67.9565 243.424 67.0574 244.887 66.945 245.514C66.3348 246.639 65.4035 250.594 63.6854 249.839C61.6623 247.524 63.4767 236.43 64.6007 233.488C65.4999 231.575 70.4453 231.446 72.4043 230.626C77.2213 229.372 81.9581 227.829 86.759 226.511C97.485 223.681 107.874 219.79 118.295 216.028C124.107 213.713 129.984 211.494 135.379 208.279C137.45 206.944 139.859 205.819 141.224 203.697C135.893 201.912 130.032 202.218 124.476 202.298C119.868 202.378 115.244 203.054 110.635 202.925C110.122 202.909 109.608 202.893 109.094 202.845C107.938 202.7 108.42 201.382 109.447 201.607C109.415 201.607 109.383 201.607 109.367 201.607C110.025 201.558 110.684 201.526 111.342 201.478C111.438 201.478 111.535 201.462 111.615 201.462C111.727 201.446 111.84 201.446 111.952 201.446C111.968 201.446 111.984 201.446 112 201.446H111.984C117.122 201.012 156.189 196.623 138.478 208.423Z" fill="#252B31"/>
<path d="M80.0471 239.694C79.0837 239.919 79.9347 232.074 79.726 230.868C79.7581 230.241 79.453 228.569 80.5449 228.955C80.9303 229.453 80.7857 230.193 80.9142 230.787C80.9142 232.347 81.9418 239.517 80.0471 239.694Z" fill="#252B31"/>
<path d="M78.474 232.249C77.9923 232.249 77.9281 231.59 78.2813 231.349C78.6667 231.06 81.0591 230.61 80.3687 231.655C79.8067 231.992 79.1002 232.121 78.474 232.249Z" fill="#252B31"/>
<path d="M78.1688 235.08C77.8637 233.81 82.5042 233.987 78.9235 235.241C78.9396 235.241 78.9396 235.225 78.9556 235.225C78.6987 235.385 78.2812 235.45 78.1688 235.08Z" fill="#252B31"/>
<path d="M78.6182 237.845C77.9117 237.315 78.9072 236.977 79.405 236.993C79.6298 236.977 80.2239 236.736 80.2239 237.122C80.0473 237.347 79.6298 237.347 79.3889 237.556C79.405 237.556 79.421 237.54 79.421 237.54C79.1481 237.636 78.9072 237.91 78.6182 237.845Z" fill="#252B31"/>
<path d="M71.1196 217.185C71.4408 214.709 72.6129 212.378 73.3836 210.015C73.7048 209.42 74.5879 205.577 75.5352 206.847C75.7761 207.04 75.6316 207.442 75.3586 207.539C74.5558 210.384 73.8172 213.246 72.8698 216.06C72.6129 216.638 72.5647 217.571 71.8101 217.7C71.4729 217.764 71.1678 217.539 71.1196 217.185Z" fill="#252B31"/>
<path d="M75.2462 209.597C74.8287 209.372 73.8974 209.147 74.1704 208.504C74.2988 208.23 74.7645 208.166 74.8769 208.472C75.1498 208.568 75.4389 208.616 75.7118 208.745C76.2256 209.034 75.7279 209.838 75.2462 209.597Z" fill="#252B31"/>
<path d="M74.7325 212.668C74.588 212.62 74.4595 212.588 74.315 212.555H74.3311C74.315 212.555 74.315 212.555 74.299 212.555C74.026 212.475 73.7209 212.459 73.4479 212.33C73.1429 212.202 73.2553 211.736 73.5443 211.671C73.7209 211.639 73.8975 211.719 74.0742 211.687C74.0742 211.687 74.0742 211.687 74.0581 211.687C75.5353 211.366 75.8083 212.652 74.7325 212.668Z" fill="#252B31"/>
<path d="M73.7852 215.24C73.3195 215.143 72.1153 214.741 72.9181 214.211C72.902 214.211 72.902 214.227 72.886 214.227C73.2713 214.146 73.7049 214.275 74.1223 214.259C74.7807 214.388 74.3632 215.433 73.7852 215.24Z" fill="#252B31"/>
<path d="M82.2791 82.3283C81.7492 81.6852 83.5797 81.5887 83.949 81.444C84.3986 81.3958 84.3826 82.1032 83.9811 82.1675C83.4191 82.2318 82.825 82.473 82.2791 82.3283Z" fill="#252B31"/>
<path d="M83.4513 83.1321C83.0017 83.0678 83.2907 82.2639 83.66 82.5855C83.7885 82.5694 83.9169 82.5533 84.0454 82.5212C84.0454 82.5212 84.0454 82.5212 84.0293 82.5212C84.0454 82.5212 84.0614 82.5212 84.0614 82.5051H84.0454C85.3299 82.0871 85.057 83.4376 83.4513 83.1321Z" fill="#252B31"/>
<path d="M91.4478 88.3093C90.95 87.5537 92.8608 87.409 93.3264 87.3286C93.6958 87.3447 93.6797 87.9235 93.3586 88.0038C92.7323 88.0842 92.0579 88.4218 91.4478 88.3093Z" fill="#252B31"/>
<path d="M93.2943 89.2249C93.0053 89.2732 92.7805 88.9356 93.0695 88.7748C93.2461 88.7105 93.4388 88.6944 93.6315 88.6462C93.6315 88.6462 93.6315 88.6462 93.6154 88.6462C93.6315 88.6462 93.6636 88.6301 93.6796 88.6301C93.6636 88.6301 93.6475 88.6301 93.6475 88.6462C94.065 88.614 94.9481 88.0835 95.0766 88.7105C95.0926 88.8873 94.9642 89.0642 94.7876 89.0963C94.2898 89.1606 93.792 89.2089 93.2943 89.2249Z" fill="#252B31"/>
<path d="M94.5464 90.4478C94.1931 90.5121 93.8559 90.1102 94.2573 89.9012C94.739 89.9333 95.863 89.2903 95.9915 89.9816C95.9594 90.7051 95.012 90.3996 94.5464 90.4478Z" fill="#252B31"/>
<path d="M154.005 68.4852C149.975 66.6042 145.752 65.2537 141.705 63.4209C141.159 62.9707 139.12 62.6009 139.457 61.7166C139.875 61.4112 140.918 62.215 141.464 62.2954C143.568 63.2118 145.784 63.871 147.919 64.7231C150.151 65.5431 152.399 66.3148 154.519 67.3759C155.097 67.6974 154.647 68.7746 154.005 68.4852Z" fill="white"/>
<path d="M71.5212 112.956C69.7068 112.297 72.308 110.078 72.8539 109.226C73.2393 108.776 76.5952 104.612 76.1938 106.959C74.9413 108.422 73.7531 109.949 72.6452 111.509C73.0145 111.444 73.3678 111.348 73.721 111.252C73.6889 111.268 73.6728 111.268 73.6407 111.284C74.3312 111.091 75.0216 110.898 75.712 110.689C75.696 110.689 75.696 110.689 75.6799 110.705C76.5309 110.592 79.5978 108.904 79.0197 110.866C77.8315 111.621 76.2259 111.814 74.861 112.297C74.8932 112.28 74.9092 112.28 74.9413 112.264C73.8334 112.586 72.6934 113.02 71.5212 112.956Z" fill="white"/>
<path d="M99.1387 122.265C97.822 120.882 97.1798 118.953 96.2966 117.281C96.2966 117.281 96.2966 117.281 96.2966 117.297C96.0558 116.943 96.0237 116.22 96.6017 116.236C97.9826 117.233 98.4482 119.259 99.5401 120.609C100.102 119.082 100.841 117.619 101.419 116.091V116.107C101.627 115.513 101.836 114.918 101.981 114.307C101.981 114.323 101.981 114.323 101.981 114.339C101.981 114.307 101.997 114.275 101.997 114.242C101.997 114.259 101.981 114.275 101.981 114.291C102.157 112.554 103.924 113.214 103.024 114.693C102.43 116.493 101.611 118.214 100.889 119.982C100.504 120.738 100.343 122.619 99.1387 122.265Z" fill="white"/>
<path d="M71.4728 166.027C70.2686 165.625 73.1749 161.702 73.5923 160.914C74.7966 160.641 73.3194 162.876 73.1588 163.326C72.5968 163.953 72.372 166.139 71.4728 166.027Z" fill="white"/>
<path d="M68.5503 168.182C67.7635 167.442 69.2086 166.188 69.4816 165.417C69.883 164.774 70.1881 164.066 70.6055 163.439C71.4244 162.925 70.7019 164.5 70.5895 164.79V164.774C70.2041 165.401 69.3692 168.6 68.5503 168.182Z" fill="white"/>
<path d="M65.2111 170.883C64.3761 170.16 65.8052 169.163 66.1102 168.455C66.1102 168.455 66.1102 168.455 66.1102 168.471C66.4314 168.214 67.7159 165.272 67.7801 166.848C67.4911 167.989 66.7364 169.018 66.1745 170.063C65.9818 170.433 65.7409 171.108 65.2111 170.883Z" fill="white"/>
<path d="M106.525 167.683C106.011 167.587 106.172 167.008 106.284 166.655C106.573 166.011 106.638 162.78 107.28 162.876C107.36 163.905 107.184 164.983 107.119 166.011C106.975 166.558 107.344 167.651 106.525 167.683Z" fill="white"/>
<path d="M104.1 171.783C103.041 171.622 104.678 168.471 104.662 167.619C104.662 167.635 104.646 167.651 104.646 167.667C104.662 167.619 104.678 167.57 104.678 167.506C104.678 167.522 104.662 167.538 104.662 167.554C104.839 167.136 104.727 166.381 105.192 166.172C105.594 166.204 105.353 166.702 105.353 166.959C105.112 167.844 105.128 171.863 104.1 171.783Z" fill="white"/>
<path d="M101.403 175.497C100.568 174.999 101.724 173.391 101.708 172.571C101.708 172.587 101.692 172.619 101.692 172.635C101.868 172.282 102.077 169.838 102.687 170.545C102.623 171.381 102.511 175.722 101.403 175.497Z" fill="white"/>
<path d="M96.1522 183.793C95.3173 183.375 96.1362 182.362 96.3931 181.783C97.0835 180.352 97.7098 178.889 98.352 177.426C98.5929 177.072 98.8659 174.452 99.4921 175.513C99.3155 176.622 99.1067 177.748 98.6732 178.793C98.6892 178.776 98.6892 178.744 98.7053 178.728C98.6892 178.776 98.6732 178.825 98.6411 178.889C98.625 178.905 98.625 178.937 98.6089 178.953C98.6089 178.953 98.6089 178.953 98.6089 178.937C98.6089 178.953 98.609 178.953 98.5929 178.969C98.5929 178.985 98.5768 179.018 98.5768 179.034C98.5768 179.034 98.5768 179.034 98.5768 179.018C98.5608 179.066 98.5287 179.13 98.5126 179.178C98.5287 179.162 98.5287 179.13 98.5447 179.114C98.4644 179.339 98.3842 179.564 98.3039 179.773C98.2878 179.805 98.2878 179.821 98.2718 179.854C98.2718 179.838 98.2718 179.838 98.2878 179.821C97.8703 180.577 97.0675 184.05 96.1522 183.793Z" fill="white"/>
<path d="M76.2739 155.962C76.4826 153.921 76.9483 151.911 77.1409 149.885C77.1409 149.917 77.1409 149.949 77.1249 149.966C77.446 145.657 78.3291 141.428 78.8751 137.136C79.0678 136.541 79.1641 130.576 80.1114 131.605C79.8224 134.612 79.694 137.698 79.2765 140.721V140.705C79.2765 140.769 79.2604 140.834 79.2604 140.898V140.882C78.6824 145.014 78.3291 149.178 77.6226 153.294C77.3176 154.049 77.5263 156.268 76.6914 156.445C76.4505 156.477 76.2578 156.22 76.2739 155.962Z" fill="white"/>
<path d="M81.8457 130.979C80.9466 130.609 81.5567 128.985 82.2953 128.76C83.7725 128.696 83.066 131.268 81.8457 130.979Z" fill="white"/>
<path d="M90.7249 121.573C90.0505 120.785 91.0781 119.547 91.9773 119.692C93.2297 120.255 91.7686 122.457 90.7249 121.573Z" fill="white"/>
<path d="M80.4486 145.303C79.4691 144.901 80.2238 143.02 81.123 143.036C82.247 143.293 81.4602 145.544 80.4486 145.303Z" fill="white"/>
<path d="M77.5909 160.529C77.0611 160.127 77.8157 158.406 78.4259 158.985C78.5383 159.017 78.5865 159.146 78.5704 159.259C79.2448 159.853 78.3295 161.156 77.5909 160.529Z" fill="white"/>
<path d="M75.6157 177.603C75.2463 177.089 75.5354 176.172 75.9047 175.738C76.1937 175.513 76.5148 175.883 76.4345 176.188C77.1732 176.606 76.3864 178.246 75.6157 177.603Z" fill="white"/>
<path d="M66.768 139.949C66.6075 139.226 64.5843 135.174 65.6441 135.126C65.6441 135.126 65.6441 135.126 65.628 135.126C65.8046 135.142 65.8528 135.351 65.7886 135.496C65.917 135.866 66.0776 136.203 66.2221 136.557C66.2221 136.541 66.206 136.525 66.206 136.509C66.6556 137.457 67.1052 138.39 67.6512 139.29C68.0044 139.853 67.1534 140.593 66.768 139.949Z" fill="white"/>
<path d="M69.6429 139.757C69.4341 139.468 69.2896 139.146 69.1451 138.825C69.1451 138.841 69.1612 138.857 69.1612 138.873C69.1451 138.841 69.129 138.808 69.113 138.76C69.113 138.776 69.129 138.792 69.129 138.808C69.0969 138.519 66.849 134.339 67.8606 135.255V135.239C67.8606 135.223 67.8606 135.207 67.8445 135.191C68.2299 135.931 68.7116 136.638 69.1612 137.345C69.1451 137.329 69.1451 137.313 69.1451 137.313C69.2093 137.41 69.2575 137.506 69.3217 137.603C69.3217 137.603 69.3057 137.587 69.3057 137.57C69.5305 138.294 70.7829 139.034 70.253 139.789C70.0764 139.966 69.7874 139.966 69.6429 139.757Z" fill="white"/>
<path d="M89.2479 141.638C89.1355 141.541 89.0231 141.429 88.9268 141.316C88.9429 141.332 88.9589 141.348 88.975 141.364C88.2364 140.48 87.4978 139.451 87.1927 138.342V138.358C87.1606 138.101 87.578 138.004 87.5941 138.31C87.8671 138.808 88.2845 139.242 88.6057 139.708C88.9429 140.352 90.3398 140.609 89.9223 141.477C89.7939 141.67 89.4727 141.798 89.2479 141.638Z" fill="white"/>
<path d="M92.7001 141.895C91.8812 141.799 88.3808 138.776 89.3121 138.133C89.4405 138.101 89.5368 138.213 89.5368 138.326C90.131 139.258 91.0301 139.998 92.0738 140.4C92.5876 140.641 93.6313 140.625 93.3905 141.461C93.3263 141.734 93.0051 141.992 92.7001 141.895Z" fill="white"/>
<path d="M95.9755 141.461C95.3974 141.075 91.9613 139.452 92.9889 138.68C93.1013 138.632 93.2458 138.68 93.31 138.776C94.0005 139.468 94.8836 139.87 95.7988 140.207C96.987 140.4 96.9389 141.622 95.9755 141.461Z" fill="white"/>
<path d="M33.8038 74.1293C33.2418 73.2933 34.5103 73.1486 35.0241 72.8753C38.4924 71.1068 42.1052 69.4026 45.1881 67.0231C46.3281 66.3478 46.6332 67.9395 45.2523 68.6148C43.5182 69.8688 35.5058 74.8689 33.8038 74.1293Z" fill="white"/>
<path d="M62.7217 121.236C62.6575 119.467 63.0107 117.683 62.9305 115.914C63.1874 114.644 64.4398 115.335 64.0384 116.429V116.412C63.8778 118.052 63.7975 119.757 63.3319 121.332C63.1713 121.541 62.802 121.525 62.7217 121.236Z" fill="white"/>
<path d="M61.7745 118.471C61.7424 117.297 61.7584 116.107 61.7424 114.918C61.7424 114.934 61.7424 114.934 61.7424 114.95C61.7424 114.548 61.7103 114.162 61.6139 113.776C61.5176 113.278 62.2723 112.908 62.481 113.455C62.8021 115.078 62.4649 116.799 62.208 118.406C62.208 118.406 62.208 118.406 62.208 118.39C62.1759 118.615 61.8548 118.696 61.7745 118.471Z" fill="white"/>
<path d="M60.2489 116.396C60.0723 115.335 60.008 114.242 59.7029 113.213C59.5905 112.666 58.9483 111.911 59.5905 111.493C60.6342 110.576 61.4692 117.956 60.2489 116.396Z" fill="white"/>
<path d="M112.289 97.0072C111.759 90.8496 109.801 84.4829 105.273 80.0938C103.619 78.5986 97.1478 73.4217 98.2557 71.1226C98.8016 71.0422 98.5768 71.8782 98.8177 72.1676C98.8177 72.1516 98.8016 72.1355 98.8016 72.1355C99.171 72.8429 99.7008 73.4538 100.215 74.0648C100.199 74.0487 100.199 74.0326 100.183 74.0326C102.109 76.3799 104.855 77.8269 106.958 79.9813C109.174 82.4411 111.037 85.3672 111.888 88.5987C112.145 89.274 114.264 99.3063 112.289 97.0072Z" fill="white"/>
<path d="M107.296 99.7083C107.296 95.4317 107.858 90.8175 105.963 86.8303C105.963 86.8463 105.979 86.8624 105.979 86.8785C105.851 86.2997 104.935 85.5923 105.433 85.0296C105.594 84.901 105.835 84.9653 105.915 85.1743C106.686 86.8946 107.777 88.5184 108.002 90.4316C108.002 90.4155 108.002 90.3995 107.986 90.3834C107.986 90.4155 108.002 90.4638 108.002 90.4959C108.002 90.4798 108.002 90.4477 107.986 90.4316C108.147 91.0908 109.158 102.827 107.296 99.7083Z" fill="white"/>
<path d="M153.282 156.268C149.461 153.937 144.965 152.088 143.214 147.603C139.329 140.625 142.123 130.127 134.239 125.593C131.975 123.728 127.35 124.146 126.451 120.979C126.467 120.834 126.564 120.673 126.724 120.673C127.029 120.673 126.933 121.027 127.045 121.22C127.045 121.204 127.029 121.188 127.029 121.188C127.19 121.509 127.463 121.734 127.752 121.927C127.736 121.927 127.72 121.911 127.72 121.911C128.972 122.699 130.449 122.94 131.862 123.31C134.367 124.114 136.872 125.48 138.381 127.699C140.806 130.866 141.464 134.789 141.834 138.664C142.685 144.114 144.419 150.223 149.717 152.876C150.328 153.31 156.124 155.85 153.282 156.268Z" fill="white"/>
<path d="M146.619 160.995C146.217 160.078 145.607 159.274 144.836 158.631C144.852 158.647 144.885 158.664 144.901 158.68C144.323 158.181 143.712 157.747 143.054 157.345C143.054 157.345 143.07 157.345 143.07 157.361C142.99 157.313 142.894 157.265 142.813 157.2C142.813 157.2 142.829 157.2 142.829 157.217C137.049 153.985 134.143 147.361 134.351 140.898C134.351 140.914 134.351 140.93 134.351 140.946C134.271 138.615 134.384 136.268 134.078 133.969C134.062 133.663 133.805 133.181 134.175 133.004C134.335 132.94 134.464 133.068 134.496 133.229C135.106 136.798 135.01 140.432 135.427 144.017C135.427 144.001 135.427 144.001 135.427 143.985C135.459 144.162 135.475 144.322 135.507 144.499C136.31 149.194 139.04 153.551 143.215 155.946C143.215 155.946 143.199 155.946 143.199 155.93C143.263 155.963 143.311 155.995 143.375 156.027C143.359 156.027 143.359 156.011 143.343 156.011C143.359 156.027 143.391 156.043 143.407 156.059C143.407 156.059 143.407 156.059 143.391 156.059C144.788 156.895 146.169 157.86 147.084 159.226C147.084 159.21 147.068 159.21 147.068 159.194C147.084 159.21 147.1 159.242 147.116 159.258C147.116 159.258 147.116 159.242 147.1 159.242C147.405 159.789 148.08 160.609 147.405 161.139C147.149 161.348 146.763 161.284 146.619 160.995Z" fill="white"/>
<path d="M116.352 161.365C112.851 154.596 118.278 147.812 120.093 141.413C121.233 137.12 120.462 133.664 119.113 129.596C119.065 129.274 119.563 129.114 119.611 129.499C119.82 130.721 120.559 131.766 120.976 132.924C121.586 134.869 121.747 136.975 121.57 139.001C121.57 138.985 121.57 138.969 121.57 138.953C121.57 139.017 121.554 139.066 121.554 139.13C121.554 139.178 121.538 139.21 121.538 139.258C120.992 146.509 113.879 153.133 117.187 160.593C117.187 160.577 117.171 160.577 117.171 160.561C117.62 161.076 116.849 161.976 116.352 161.365Z" fill="white"/>
<path d="M129.92 163.792C123.513 160.979 123.031 153.213 124.027 147.168C124.3 146.525 123.914 144.934 124.749 144.821C125.087 144.869 125.103 145.239 125.038 145.496C125.038 145.48 125.038 145.48 125.038 145.464C125.022 145.561 125.022 145.657 125.006 145.77C125.006 145.754 125.006 145.721 125.006 145.705C124.38 150.705 123.914 156.59 127.736 160.464C128.715 161.477 130 162.217 131.349 162.619C132.489 163.358 131.365 164.645 129.92 163.792Z" fill="white"/>
<path d="M136.712 162.571C133.677 161.895 131.028 159.355 130.161 156.365C130.097 155.834 129.647 154.87 130.193 154.532C130.755 154.58 130.386 155.481 130.626 155.866C131.526 158.583 134.095 160.818 136.921 161.268C137.691 161.397 137.451 162.667 136.712 162.571Z" fill="white"/>
<path d="M56.6687 254.195C56.5403 253.938 56.8293 253.697 56.9899 253.52C56.9738 253.536 56.9738 253.536 56.9577 253.552C57.6482 252.443 58.435 253.536 57.3271 254.019C57.3271 254.019 57.3431 254.019 57.3431 254.003C57.2628 254.051 57.1986 254.099 57.1183 254.147C57.1344 254.147 57.1344 254.131 57.1504 254.131C57.0059 254.228 56.7972 254.421 56.6687 254.195Z" fill="white"/>
<path d="M102.559 190.079C102.093 189.532 102.944 189.146 103.265 188.792C103.907 188.214 104.485 187.49 105.256 187.088C106.139 187.313 104.614 188.342 104.421 188.728C103.891 189.146 103.361 190.481 102.559 190.079Z" fill="white"/>
<path d="M99.1548 193.6C99.1869 192.603 100.712 192.683 101.371 192.185C102.96 191.526 104.309 190.481 105.61 189.387L105.594 189.404C107.055 188.76 104.775 191.124 104.486 191.349C103.763 191.992 99.7007 194.886 99.1548 193.6Z" fill="white"/>
<path d="M101.371 195.819C101.226 195.176 102.109 195.192 102.479 194.919C102.479 194.919 102.463 194.919 102.463 194.935C103.057 194.758 103.747 193.777 104.309 193.938C104.614 194.163 101.451 196.735 101.371 195.819Z" fill="white"/>
<path d="M54.0193 185.609C53.7624 184.645 53.5215 183.648 53.3931 182.667C54.228 181.269 54.5492 184.709 54.9506 185.175C55.1593 185.722 54.2601 186.22 54.0193 185.609Z" fill="white"/>
<path d="M55.6409 190.046C55.1753 189.982 55.2716 189.452 55.4322 189.146C55.8979 187.924 55.8497 186.558 55.8336 185.271C56.5562 184.355 56.8131 190.497 55.6409 190.046Z" fill="white"/>
</svg>
